<?xml version="1.0" encoding="utf-8" standalone="no"?>
<!DOCTYPE svg PUBLIC "-//W3C//DTD SVG 1.1//EN"
  "http://www.w3.org/Graphics/SVG/1.1/DTD/svg11.dtd">
<svg xmlns:xlink="http://www.w3.org/1999/xlink" width="732.578125pt" height="363.718125pt" viewBox="0 0 732.578125 363.718125" xmlns="http://www.w3.org/2000/svg" version="1.1">
 <metadata>
  <rdf:RDF xmlns:dc="http://purl.org/dc/elements/1.1/" xmlns:cc="http://creativecommons.org/ns#" xmlns:rdf="http://www.w3.org/1999/02/22-rdf-syntax-ns#">
   <cc:Work>
    <dc:type rdf:resource="http://purl.org/dc/dcmitype/StillImage"/>
    <dc:date>2024-05-20T01:01:24.651855</dc:date>
    <dc:format>image/svg+xml</dc:format>
    <dc:creator>
     <cc:Agent>
      <dc:title>Matplotlib v3.5.2, https://matplotlib.org/</dc:title>
     </cc:Agent>
    </dc:creator>
   </cc:Work>
  </rdf:RDF>
 </metadata>
 <defs>
  <style type="text/css">*{stroke-linejoin: round; stroke-linecap: butt}</style>
 </defs>
 <g id="figure_1">
  <g id="patch_1">
   <path d="M 0 363.718125 
L 732.578125 363.718125 
L 732.578125 0 
L 0 0 
z
" style="fill: #ffffff"/>
  </g>
  <g id="axes_1">
   <g id="patch_2">
    <path d="M 55.778125 158.4 
L 725.378125 158.4 
L 725.378125 7.2 
L 55.778125 7.2 
z
" style="fill: #ffffff"/>
   </g>
   <g id="matplotlib.axis_1">
    <g id="xtick_1">
     <g id="line2d_1">
      <path d="M 130.777561 158.4 
L 130.777561 7.2 
" clip-path="url(#pafb01f1f3e)" style="fill: none; stroke: #b0b0b0; stroke-width: 0.8; stroke-linecap: square"/>
     </g>
     <g id="line2d_2">
      <defs>
       <path id="mc0b560bf65" d="M 0 0 
L 0 3.5 
" style="stroke: #000000; stroke-width: 0.8"/>
      </defs>
      <g>
       <use xlink:href="#mc0b560bf65" x="130.777561" y="158.4" style="stroke: #000000; stroke-width: 0.8"/>
      </g>
     </g>
     <g id="text_1">
      <!-- $\mathdefault{10^{-279}}$ -->
      <g transform="translate(114.577561 172.998438)scale(0.1 -0.1)">
       <defs>
        <path id="DejaVuSans-31" d="M 794 531 
L 1825 531 
L 1825 4091 
L 703 3866 
L 703 4441 
L 1819 4666 
L 2450 4666 
L 2450 531 
L 3481 531 
L 3481 0 
L 794 0 
L 794 531 
z
" transform="scale(0.015625)"/>
        <path id="DejaVuSans-30" d="M 2034 4250 
Q 1547 4250 1301 3770 
Q 1056 3291 1056 2328 
Q 1056 1369 1301 889 
Q 1547 409 2034 409 
Q 2525 409 2770 889 
Q 3016 1369 3016 2328 
Q 3016 3291 2770 3770 
Q 2525 4250 2034 4250 
z
M 2034 4750 
Q 2819 4750 3233 4129 
Q 3647 3509 3647 2328 
Q 3647 1150 3233 529 
Q 2819 -91 2034 -91 
Q 1250 -91 836 529 
Q 422 1150 422 2328 
Q 422 3509 836 4129 
Q 1250 4750 2034 4750 
z
" transform="scale(0.015625)"/>
        <path id="DejaVuSans-2212" d="M 678 2272 
L 4684 2272 
L 4684 1741 
L 678 1741 
L 678 2272 
z
" transform="scale(0.015625)"/>
        <path id="DejaVuSans-32" d="M 1228 531 
L 3431 531 
L 3431 0 
L 469 0 
L 469 531 
Q 828 903 1448 1529 
Q 2069 2156 2228 2338 
Q 2531 2678 2651 2914 
Q 2772 3150 2772 3378 
Q 2772 3750 2511 3984 
Q 2250 4219 1831 4219 
Q 1534 4219 1204 4116 
Q 875 4013 500 3803 
L 500 4441 
Q 881 4594 1212 4672 
Q 1544 4750 1819 4750 
Q 2544 4750 2975 4387 
Q 3406 4025 3406 3419 
Q 3406 3131 3298 2873 
Q 3191 2616 2906 2266 
Q 2828 2175 2409 1742 
Q 1991 1309 1228 531 
z
" transform="scale(0.015625)"/>
        <path id="DejaVuSans-37" d="M 525 4666 
L 3525 4666 
L 3525 4397 
L 1831 0 
L 1172 0 
L 2766 4134 
L 525 4134 
L 525 4666 
z
" transform="scale(0.015625)"/>
        <path id="DejaVuSans-39" d="M 703 97 
L 703 672 
Q 941 559 1184 500 
Q 1428 441 1663 441 
Q 2288 441 2617 861 
Q 2947 1281 2994 2138 
Q 2813 1869 2534 1725 
Q 2256 1581 1919 1581 
Q 1219 1581 811 2004 
Q 403 2428 403 3163 
Q 403 3881 828 4315 
Q 1253 4750 1959 4750 
Q 2769 4750 3195 4129 
Q 3622 3509 3622 2328 
Q 3622 1225 3098 567 
Q 2575 -91 1691 -91 
Q 1453 -91 1209 -44 
Q 966 3 703 97 
z
M 1959 2075 
Q 2384 2075 2632 2365 
Q 2881 2656 2881 3163 
Q 2881 3666 2632 3958 
Q 2384 4250 1959 4250 
Q 1534 4250 1286 3958 
Q 1038 3666 1038 3163 
Q 1038 2656 1286 2365 
Q 1534 2075 1959 2075 
z
" transform="scale(0.015625)"/>
       </defs>
       <use xlink:href="#DejaVuSans-31" transform="translate(0 0.765625)"/>
       <use xlink:href="#DejaVuSans-30" transform="translate(63.623047 0.765625)"/>
       <use xlink:href="#DejaVuSans-2212" transform="translate(128.203125 39.046875)scale(0.7)"/>
       <use xlink:href="#DejaVuSans-32" transform="translate(186.855469 39.046875)scale(0.7)"/>
       <use xlink:href="#DejaVuSans-37" transform="translate(231.391602 39.046875)scale(0.7)"/>
       <use xlink:href="#DejaVuSans-39" transform="translate(275.927734 39.046875)scale(0.7)"/>
      </g>
     </g>
    </g>
    <g id="xtick_2">
     <g id="line2d_3">
      <path d="M 206.659391 158.4 
L 206.659391 7.2 
" clip-path="url(#pafb01f1f3e)" style="fill: none; stroke: #b0b0b0; stroke-width: 0.8; stroke-linecap: square"/>
     </g>
     <g id="line2d_4">
      <g>
       <use xlink:href="#mc0b560bf65" x="206.659391" y="158.4" style="stroke: #000000; stroke-width: 0.8"/>
      </g>
     </g>
     <g id="text_2">
      <!-- $\mathdefault{10^{-242}}$ -->
      <g transform="translate(190.459391 172.998438)scale(0.1 -0.1)">
       <defs>
        <path id="DejaVuSans-34" d="M 2419 4116 
L 825 1625 
L 2419 1625 
L 2419 4116 
z
M 2253 4666 
L 3047 4666 
L 3047 1625 
L 3713 1625 
L 3713 1100 
L 3047 1100 
L 3047 0 
L 2419 0 
L 2419 1100 
L 313 1100 
L 313 1709 
L 2253 4666 
z
" transform="scale(0.015625)"/>
       </defs>
       <use xlink:href="#DejaVuSans-31" transform="translate(0 0.765625)"/>
       <use xlink:href="#DejaVuSans-30" transform="translate(63.623047 0.765625)"/>
       <use xlink:href="#DejaVuSans-2212" transform="translate(128.203125 39.046875)scale(0.7)"/>
       <use xlink:href="#DejaVuSans-32" transform="translate(186.855469 39.046875)scale(0.7)"/>
       <use xlink:href="#DejaVuSans-34" transform="translate(231.391602 39.046875)scale(0.7)"/>
       <use xlink:href="#DejaVuSans-32" transform="translate(275.927734 39.046875)scale(0.7)"/>
      </g>
     </g>
    </g>
    <g id="xtick_3">
     <g id="line2d_5">
      <path d="M 282.541221 158.4 
L 282.541221 7.2 
" clip-path="url(#pafb01f1f3e)" style="fill: none; stroke: #b0b0b0; stroke-width: 0.8; stroke-linecap: square"/>
     </g>
     <g id="line2d_6">
      <g>
       <use xlink:href="#mc0b560bf65" x="282.541221" y="158.4" style="stroke: #000000; stroke-width: 0.8"/>
      </g>
     </g>
     <g id="text_3">
      <!-- $\mathdefault{10^{-205}}$ -->
      <g transform="translate(266.341221 172.998438)scale(0.1 -0.1)">
       <defs>
        <path id="DejaVuSans-35" d="M 691 4666 
L 3169 4666 
L 3169 4134 
L 1269 4134 
L 1269 2991 
Q 1406 3038 1543 3061 
Q 1681 3084 1819 3084 
Q 2600 3084 3056 2656 
Q 3513 2228 3513 1497 
Q 3513 744 3044 326 
Q 2575 -91 1722 -91 
Q 1428 -91 1123 -41 
Q 819 9 494 109 
L 494 744 
Q 775 591 1075 516 
Q 1375 441 1709 441 
Q 2250 441 2565 725 
Q 2881 1009 2881 1497 
Q 2881 1984 2565 2268 
Q 2250 2553 1709 2553 
Q 1456 2553 1204 2497 
Q 953 2441 691 2322 
L 691 4666 
z
" transform="scale(0.015625)"/>
       </defs>
       <use xlink:href="#DejaVuSans-31" transform="translate(0 0.765625)"/>
       <use xlink:href="#DejaVuSans-30" transform="translate(63.623047 0.765625)"/>
       <use xlink:href="#DejaVuSans-2212" transform="translate(128.203125 39.046875)scale(0.7)"/>
       <use xlink:href="#DejaVuSans-32" transform="translate(186.855469 39.046875)scale(0.7)"/>
       <use xlink:href="#DejaVuSans-30" transform="translate(231.391602 39.046875)scale(0.7)"/>
       <use xlink:href="#DejaVuSans-35" transform="translate(275.927734 39.046875)scale(0.7)"/>
      </g>
     </g>
    </g>
    <g id="xtick_4">
     <g id="line2d_7">
      <path d="M 358.423051 158.4 
L 358.423051 7.2 
" clip-path="url(#pafb01f1f3e)" style="fill: none; stroke: #b0b0b0; stroke-width: 0.8; stroke-linecap: square"/>
     </g>
     <g id="line2d_8">
      <g>
       <use xlink:href="#mc0b560bf65" x="358.423051" y="158.4" style="stroke: #000000; stroke-width: 0.8"/>
      </g>
     </g>
     <g id="text_4">
      <!-- $\mathdefault{10^{-168}}$ -->
      <g transform="translate(342.223051 172.998438)scale(0.1 -0.1)">
       <defs>
        <path id="DejaVuSans-36" d="M 2113 2584 
Q 1688 2584 1439 2293 
Q 1191 2003 1191 1497 
Q 1191 994 1439 701 
Q 1688 409 2113 409 
Q 2538 409 2786 701 
Q 3034 994 3034 1497 
Q 3034 2003 2786 2293 
Q 2538 2584 2113 2584 
z
M 3366 4563 
L 3366 3988 
Q 3128 4100 2886 4159 
Q 2644 4219 2406 4219 
Q 1781 4219 1451 3797 
Q 1122 3375 1075 2522 
Q 1259 2794 1537 2939 
Q 1816 3084 2150 3084 
Q 2853 3084 3261 2657 
Q 3669 2231 3669 1497 
Q 3669 778 3244 343 
Q 2819 -91 2113 -91 
Q 1303 -91 875 529 
Q 447 1150 447 2328 
Q 447 3434 972 4092 
Q 1497 4750 2381 4750 
Q 2619 4750 2861 4703 
Q 3103 4656 3366 4563 
z
" transform="scale(0.015625)"/>
        <path id="DejaVuSans-38" d="M 2034 2216 
Q 1584 2216 1326 1975 
Q 1069 1734 1069 1313 
Q 1069 891 1326 650 
Q 1584 409 2034 409 
Q 2484 409 2743 651 
Q 3003 894 3003 1313 
Q 3003 1734 2745 1975 
Q 2488 2216 2034 2216 
z
M 1403 2484 
Q 997 2584 770 2862 
Q 544 3141 544 3541 
Q 544 4100 942 4425 
Q 1341 4750 2034 4750 
Q 2731 4750 3128 4425 
Q 3525 4100 3525 3541 
Q 3525 3141 3298 2862 
Q 3072 2584 2669 2484 
Q 3125 2378 3379 2068 
Q 3634 1759 3634 1313 
Q 3634 634 3220 271 
Q 2806 -91 2034 -91 
Q 1263 -91 848 271 
Q 434 634 434 1313 
Q 434 1759 690 2068 
Q 947 2378 1403 2484 
z
M 1172 3481 
Q 1172 3119 1398 2916 
Q 1625 2713 2034 2713 
Q 2441 2713 2670 2916 
Q 2900 3119 2900 3481 
Q 2900 3844 2670 4047 
Q 2441 4250 2034 4250 
Q 1625 4250 1398 4047 
Q 1172 3844 1172 3481 
z
" transform="scale(0.015625)"/>
       </defs>
       <use xlink:href="#DejaVuSans-31" transform="translate(0 0.765625)"/>
       <use xlink:href="#DejaVuSans-30" transform="translate(63.623047 0.765625)"/>
       <use xlink:href="#DejaVuSans-2212" transform="translate(128.203125 39.046875)scale(0.7)"/>
       <use xlink:href="#DejaVuSans-31" transform="translate(186.855469 39.046875)scale(0.7)"/>
       <use xlink:href="#DejaVuSans-36" transform="translate(231.391602 39.046875)scale(0.7)"/>
       <use xlink:href="#DejaVuSans-38" transform="translate(275.927734 39.046875)scale(0.7)"/>
      </g>
     </g>
    </g>
    <g id="xtick_5">
     <g id="line2d_9">
      <path d="M 434.304882 158.4 
L 434.304882 7.2 
" clip-path="url(#pafb01f1f3e)" style="fill: none; stroke: #b0b0b0; stroke-width: 0.8; stroke-linecap: square"/>
     </g>
     <g id="line2d_10">
      <g>
       <use xlink:href="#mc0b560bf65" x="434.304882" y="158.4" style="stroke: #000000; stroke-width: 0.8"/>
      </g>
     </g>
     <g id="text_5">
      <!-- $\mathdefault{10^{-131}}$ -->
      <g transform="translate(418.104882 172.998438)scale(0.1 -0.1)">
       <defs>
        <path id="DejaVuSans-33" d="M 2597 2516 
Q 3050 2419 3304 2112 
Q 3559 1806 3559 1356 
Q 3559 666 3084 287 
Q 2609 -91 1734 -91 
Q 1441 -91 1130 -33 
Q 819 25 488 141 
L 488 750 
Q 750 597 1062 519 
Q 1375 441 1716 441 
Q 2309 441 2620 675 
Q 2931 909 2931 1356 
Q 2931 1769 2642 2001 
Q 2353 2234 1838 2234 
L 1294 2234 
L 1294 2753 
L 1863 2753 
Q 2328 2753 2575 2939 
Q 2822 3125 2822 3475 
Q 2822 3834 2567 4026 
Q 2313 4219 1838 4219 
Q 1578 4219 1281 4162 
Q 984 4106 628 3988 
L 628 4550 
Q 988 4650 1302 4700 
Q 1616 4750 1894 4750 
Q 2613 4750 3031 4423 
Q 3450 4097 3450 3541 
Q 3450 3153 3228 2886 
Q 3006 2619 2597 2516 
z
" transform="scale(0.015625)"/>
       </defs>
       <use xlink:href="#DejaVuSans-31" transform="translate(0 0.765625)"/>
       <use xlink:href="#DejaVuSans-30" transform="translate(63.623047 0.765625)"/>
       <use xlink:href="#DejaVuSans-2212" transform="translate(128.203125 39.046875)scale(0.7)"/>
       <use xlink:href="#DejaVuSans-31" transform="translate(186.855469 39.046875)scale(0.7)"/>
       <use xlink:href="#DejaVuSans-33" transform="translate(231.391602 39.046875)scale(0.7)"/>
       <use xlink:href="#DejaVuSans-31" transform="translate(275.927734 39.046875)scale(0.7)"/>
      </g>
     </g>
    </g>
    <g id="xtick_6">
     <g id="line2d_11">
      <path d="M 510.186712 158.4 
L 510.186712 7.2 
" clip-path="url(#pafb01f1f3e)" style="fill: none; stroke: #b0b0b0; stroke-width: 0.8; stroke-linecap: square"/>
     </g>
     <g id="line2d_12">
      <g>
       <use xlink:href="#mc0b560bf65" x="510.186712" y="158.4" style="stroke: #000000; stroke-width: 0.8"/>
      </g>
     </g>
     <g id="text_6">
      <!-- $\mathdefault{10^{-94}}$ -->
      <g transform="translate(496.236712 172.998438)scale(0.1 -0.1)">
       <use xlink:href="#DejaVuSans-31" transform="translate(0 0.765625)"/>
       <use xlink:href="#DejaVuSans-30" transform="translate(63.623047 0.765625)"/>
       <use xlink:href="#DejaVuSans-2212" transform="translate(128.203125 39.046875)scale(0.7)"/>
       <use xlink:href="#DejaVuSans-39" transform="translate(186.855469 39.046875)scale(0.7)"/>
       <use xlink:href="#DejaVuSans-34" transform="translate(231.391602 39.046875)scale(0.7)"/>
      </g>
     </g>
    </g>
    <g id="xtick_7">
     <g id="line2d_13">
      <path d="M 586.068542 158.4 
L 586.068542 7.2 
" clip-path="url(#pafb01f1f3e)" style="fill: none; stroke: #b0b0b0; stroke-width: 0.8; stroke-linecap: square"/>
     </g>
     <g id="line2d_14">
      <g>
       <use xlink:href="#mc0b560bf65" x="586.068542" y="158.4" style="stroke: #000000; stroke-width: 0.8"/>
      </g>
     </g>
     <g id="text_7">
      <!-- $\mathdefault{10^{-57}}$ -->
      <g transform="translate(572.368542 172.998438)scale(0.1 -0.1)">
       <use xlink:href="#DejaVuSans-31" transform="translate(0 0.684375)"/>
       <use xlink:href="#DejaVuSans-30" transform="translate(63.623047 0.684375)"/>
       <use xlink:href="#DejaVuSans-2212" transform="translate(128.203125 38.965625)scale(0.7)"/>
       <use xlink:href="#DejaVuSans-35" transform="translate(186.855469 38.965625)scale(0.7)"/>
       <use xlink:href="#DejaVuSans-37" transform="translate(226.316602 38.965625)scale(0.7)"/>
      </g>
     </g>
    </g>
    <g id="xtick_8">
     <g id="line2d_15">
      <path d="M 661.950372 158.4 
L 661.950372 7.2 
" clip-path="url(#pafb01f1f3e)" style="fill: none; stroke: #b0b0b0; stroke-width: 0.8; stroke-linecap: square"/>
     </g>
     <g id="line2d_16">
      <g>
       <use xlink:href="#mc0b560bf65" x="661.950372" y="158.4" style="stroke: #000000; stroke-width: 0.8"/>
      </g>
     </g>
     <g id="text_8">
      <!-- $\mathdefault{10^{-20}}$ -->
      <g transform="translate(648.000372 172.998438)scale(0.1 -0.1)">
       <use xlink:href="#DejaVuSans-31" transform="translate(0 0.765625)"/>
       <use xlink:href="#DejaVuSans-30" transform="translate(63.623047 0.765625)"/>
       <use xlink:href="#DejaVuSans-2212" transform="translate(128.203125 39.046875)scale(0.7)"/>
       <use xlink:href="#DejaVuSans-32" transform="translate(186.855469 39.046875)scale(0.7)"/>
       <use xlink:href="#DejaVuSans-30" transform="translate(231.391602 39.046875)scale(0.7)"/>
      </g>
     </g>
    </g>
   </g>
   <g id="matplotlib.axis_2">
    <g id="ytick_1">
     <g id="line2d_17">
      <path d="M 55.778125 147.572298 
L 725.378125 147.572298 
" clip-path="url(#pafb01f1f3e)" style="fill: none; stroke: #b0b0b0; stroke-width: 0.8; stroke-linecap: square"/>
     </g>
     <g id="line2d_18">
      <defs>
       <path id="m4f9bdc9d46" d="M 0 0 
L -3.5 0 
" style="stroke: #000000; stroke-width: 0.8"/>
      </defs>
      <g>
       <use xlink:href="#m4f9bdc9d46" x="55.778125" y="147.572298" style="stroke: #000000; stroke-width: 0.8"/>
      </g>
     </g>
     <g id="text_9">
      <!-- −5.0 -->
      <g transform="translate(24.495313 151.371517)scale(0.1 -0.1)">
       <defs>
        <path id="DejaVuSans-2e" d="M 684 794 
L 1344 794 
L 1344 0 
L 684 0 
L 684 794 
z
" transform="scale(0.015625)"/>
       </defs>
       <use xlink:href="#DejaVuSans-2212"/>
       <use xlink:href="#DejaVuSans-35" x="83.789062"/>
       <use xlink:href="#DejaVuSans-2e" x="147.412109"/>
       <use xlink:href="#DejaVuSans-30" x="179.199219"/>
      </g>
     </g>
    </g>
    <g id="ytick_2">
     <g id="line2d_19">
      <path d="M 55.778125 124.000684 
L 725.378125 124.000684 
" clip-path="url(#pafb01f1f3e)" style="fill: none; stroke: #b0b0b0; stroke-width: 0.8; stroke-linecap: square"/>
     </g>
     <g id="line2d_20">
      <g>
       <use xlink:href="#m4f9bdc9d46" x="55.778125" y="124.000684" style="stroke: #000000; stroke-width: 0.8"/>
      </g>
     </g>
     <g id="text_10">
      <!-- −4.5 -->
      <g transform="translate(24.495313 127.799903)scale(0.1 -0.1)">
       <use xlink:href="#DejaVuSans-2212"/>
       <use xlink:href="#DejaVuSans-34" x="83.789062"/>
       <use xlink:href="#DejaVuSans-2e" x="147.412109"/>
       <use xlink:href="#DejaVuSans-35" x="179.199219"/>
      </g>
     </g>
    </g>
    <g id="ytick_3">
     <g id="line2d_21">
      <path d="M 55.778125 100.42907 
L 725.378125 100.42907 
" clip-path="url(#pafb01f1f3e)" style="fill: none; stroke: #b0b0b0; stroke-width: 0.8; stroke-linecap: square"/>
     </g>
     <g id="line2d_22">
      <g>
       <use xlink:href="#m4f9bdc9d46" x="55.778125" y="100.42907" style="stroke: #000000; stroke-width: 0.8"/>
      </g>
     </g>
     <g id="text_11">
      <!-- −4.0 -->
      <g transform="translate(24.495313 104.228289)scale(0.1 -0.1)">
       <use xlink:href="#DejaVuSans-2212"/>
       <use xlink:href="#DejaVuSans-34" x="83.789062"/>
       <use xlink:href="#DejaVuSans-2e" x="147.412109"/>
       <use xlink:href="#DejaVuSans-30" x="179.199219"/>
      </g>
     </g>
    </g>
    <g id="ytick_4">
     <g id="line2d_23">
      <path d="M 55.778125 76.857457 
L 725.378125 76.857457 
" clip-path="url(#pafb01f1f3e)" style="fill: none; stroke: #b0b0b0; stroke-width: 0.8; stroke-linecap: square"/>
     </g>
     <g id="line2d_24">
      <g>
       <use xlink:href="#m4f9bdc9d46" x="55.778125" y="76.857457" style="stroke: #000000; stroke-width: 0.8"/>
      </g>
     </g>
     <g id="text_12">
      <!-- −3.5 -->
      <g transform="translate(24.495313 80.656675)scale(0.1 -0.1)">
       <use xlink:href="#DejaVuSans-2212"/>
       <use xlink:href="#DejaVuSans-33" x="83.789062"/>
       <use xlink:href="#DejaVuSans-2e" x="147.412109"/>
       <use xlink:href="#DejaVuSans-35" x="179.199219"/>
      </g>
     </g>
    </g>
    <g id="ytick_5">
     <g id="line2d_25">
      <path d="M 55.778125 53.285843 
L 725.378125 53.285843 
" clip-path="url(#pafb01f1f3e)" style="fill: none; stroke: #b0b0b0; stroke-width: 0.8; stroke-linecap: square"/>
     </g>
     <g id="line2d_26">
      <g>
       <use xlink:href="#m4f9bdc9d46" x="55.778125" y="53.285843" style="stroke: #000000; stroke-width: 0.8"/>
      </g>
     </g>
     <g id="text_13">
      <!-- −3.0 -->
      <g transform="translate(24.495313 57.085061)scale(0.1 -0.1)">
       <use xlink:href="#DejaVuSans-2212"/>
       <use xlink:href="#DejaVuSans-33" x="83.789062"/>
       <use xlink:href="#DejaVuSans-2e" x="147.412109"/>
       <use xlink:href="#DejaVuSans-30" x="179.199219"/>
      </g>
     </g>
    </g>
    <g id="ytick_6">
     <g id="line2d_27">
      <path d="M 55.778125 29.714229 
L 725.378125 29.714229 
" clip-path="url(#pafb01f1f3e)" style="fill: none; stroke: #b0b0b0; stroke-width: 0.8; stroke-linecap: square"/>
     </g>
     <g id="line2d_28">
      <g>
       <use xlink:href="#m4f9bdc9d46" x="55.778125" y="29.714229" style="stroke: #000000; stroke-width: 0.8"/>
      </g>
     </g>
     <g id="text_14">
      <!-- −2.5 -->
      <g transform="translate(24.495313 33.513448)scale(0.1 -0.1)">
       <use xlink:href="#DejaVuSans-2212"/>
       <use xlink:href="#DejaVuSans-32" x="83.789062"/>
       <use xlink:href="#DejaVuSans-2e" x="147.412109"/>
       <use xlink:href="#DejaVuSans-35" x="179.199219"/>
      </g>
     </g>
    </g>
    <g id="text_15">
     <!-- actual -->
     <g transform="translate(18.415625 98.195313)rotate(-90)scale(0.1 -0.1)">
      <defs>
       <path id="DejaVuSans-61" d="M 2194 1759 
Q 1497 1759 1228 1600 
Q 959 1441 959 1056 
Q 959 750 1161 570 
Q 1363 391 1709 391 
Q 2188 391 2477 730 
Q 2766 1069 2766 1631 
L 2766 1759 
L 2194 1759 
z
M 3341 1997 
L 3341 0 
L 2766 0 
L 2766 531 
Q 2569 213 2275 61 
Q 1981 -91 1556 -91 
Q 1019 -91 701 211 
Q 384 513 384 1019 
Q 384 1609 779 1909 
Q 1175 2209 1959 2209 
L 2766 2209 
L 2766 2266 
Q 2766 2663 2505 2880 
Q 2244 3097 1772 3097 
Q 1472 3097 1187 3025 
Q 903 2953 641 2809 
L 641 3341 
Q 956 3463 1253 3523 
Q 1550 3584 1831 3584 
Q 2591 3584 2966 3190 
Q 3341 2797 3341 1997 
z
" transform="scale(0.015625)"/>
       <path id="DejaVuSans-63" d="M 3122 3366 
L 3122 2828 
Q 2878 2963 2633 3030 
Q 2388 3097 2138 3097 
Q 1578 3097 1268 2742 
Q 959 2388 959 1747 
Q 959 1106 1268 751 
Q 1578 397 2138 397 
Q 2388 397 2633 464 
Q 2878 531 3122 666 
L 3122 134 
Q 2881 22 2623 -34 
Q 2366 -91 2075 -91 
Q 1284 -91 818 406 
Q 353 903 353 1747 
Q 353 2603 823 3093 
Q 1294 3584 2113 3584 
Q 2378 3584 2631 3529 
Q 2884 3475 3122 3366 
z
" transform="scale(0.015625)"/>
       <path id="DejaVuSans-74" d="M 1172 4494 
L 1172 3500 
L 2356 3500 
L 2356 3053 
L 1172 3053 
L 1172 1153 
Q 1172 725 1289 603 
Q 1406 481 1766 481 
L 2356 481 
L 2356 0 
L 1766 0 
Q 1100 0 847 248 
Q 594 497 594 1153 
L 594 3053 
L 172 3053 
L 172 3500 
L 594 3500 
L 594 4494 
L 1172 4494 
z
" transform="scale(0.015625)"/>
       <path id="DejaVuSans-75" d="M 544 1381 
L 544 3500 
L 1119 3500 
L 1119 1403 
Q 1119 906 1312 657 
Q 1506 409 1894 409 
Q 2359 409 2629 706 
Q 2900 1003 2900 1516 
L 2900 3500 
L 3475 3500 
L 3475 0 
L 2900 0 
L 2900 538 
Q 2691 219 2414 64 
Q 2138 -91 1772 -91 
Q 1169 -91 856 284 
Q 544 659 544 1381 
z
M 1991 3584 
L 1991 3584 
z
" transform="scale(0.015625)"/>
       <path id="DejaVuSans-6c" d="M 603 4863 
L 1178 4863 
L 1178 0 
L 603 0 
L 603 4863 
z
" transform="scale(0.015625)"/>
      </defs>
      <use xlink:href="#DejaVuSans-61"/>
      <use xlink:href="#DejaVuSans-63" x="61.279297"/>
      <use xlink:href="#DejaVuSans-74" x="116.259766"/>
      <use xlink:href="#DejaVuSans-75" x="155.46875"/>
      <use xlink:href="#DejaVuSans-61" x="218.847656"/>
      <use xlink:href="#DejaVuSans-6c" x="280.126953"/>
     </g>
    </g>
   </g>
   <g id="line2d_29">
    <path d="M 694.941761 14.072727 
L 693.70702 19.178895 
L 692.47228 23.572204 
L 690.620168 29.186329 
L 688.768057 33.941414 
L 686.915945 38.063109 
L 685.063834 41.698878 
L 682.594352 45.961883 
L 680.12487 49.704366 
L 677.655389 53.038824 
L 675.185907 56.044962 
L 672.099054 59.428624 
L 669.012202 62.473694 
L 665.92535 65.241471 
L 662.221127 68.260867 
L 658.516904 71.006861 
L 654.195311 73.924707 
L 649.873718 76.58603 
L 644.934754 79.366005 
L 639.37842 82.215518 
L 633.822086 84.819394 
L 627.648381 87.471505 
L 620.857306 90.142647 
L 613.448861 92.80995 
L 605.423045 95.455931 
L 596.779858 98.067551 
L 587.519301 100.635355 
L 577.024004 103.303284 
L 565.911335 105.892137 
L 553.563926 108.529503 
L 540.599147 111.070564 
L 526.399626 113.627604 
L 510.965365 116.18072 
L 494.296362 118.714546 
L 475.775248 121.300184 
L 456.019394 123.833212 
L 434.411428 126.379306 
L 410.95135 128.919412 
L 385.021791 131.497734 
L 357.24012 134.034877 
L 326.988968 136.573797 
L 293.650963 139.14374 
L 257.843476 141.679233 
L 218.331767 144.249092 
L 175.733205 146.793642 
L 129.430421 149.334949 
L 86.214489 151.527273 
L 86.214489 151.527273 
" clip-path="url(#pafb01f1f3e)" style="fill: none; stroke: #1f77b4; stroke-width: 1.5; stroke-linecap: square"/>
   </g>
   <g id="patch_3">
    <path d="M 55.778125 158.4 
L 55.778125 7.2 
" style="fill: none; stroke: #000000; stroke-width: 0.8; stroke-linejoin: miter; stroke-linecap: square"/>
   </g>
   <g id="patch_4">
    <path d="M 725.378125 158.4 
L 725.378125 7.2 
" style="fill: none; stroke: #000000; stroke-width: 0.8; stroke-linejoin: miter; stroke-linecap: square"/>
   </g>
   <g id="patch_5">
    <path d="M 55.778125 158.4 
L 725.378125 158.4 
" style="fill: none; stroke: #000000; stroke-width: 0.8; stroke-linejoin: miter; stroke-linecap: square"/>
   </g>
   <g id="patch_6">
    <path d="M 55.778125 7.2 
L 725.378125 7.2 
" style="fill: none; stroke: #000000; stroke-width: 0.8; stroke-linejoin: miter; stroke-linecap: square"/>
   </g>
  </g>
  <g id="axes_2">
   <g id="patch_7">
    <path d="M 55.778125 339.84 
L 725.378125 339.84 
L 725.378125 188.64 
L 55.778125 188.64 
z
" style="fill: #ffffff"/>
   </g>
   <g id="matplotlib.axis_3">
    <g id="xtick_9">
     <g id="line2d_30">
      <path d="M 130.777561 339.84 
L 130.777561 188.64 
" clip-path="url(#pa58e03cde7)" style="fill: none; stroke: #b0b0b0; stroke-width: 0.8; stroke-linecap: square"/>
     </g>
     <g id="line2d_31">
      <g>
       <use xlink:href="#mc0b560bf65" x="130.777561" y="339.84" style="stroke: #000000; stroke-width: 0.8"/>
      </g>
     </g>
     <g id="text_16">
      <!-- $\mathdefault{10^{-279}}$ -->
      <g transform="translate(114.577561 354.438438)scale(0.1 -0.1)">
       <use xlink:href="#DejaVuSans-31" transform="translate(0 0.765625)"/>
       <use xlink:href="#DejaVuSans-30" transform="translate(63.623047 0.765625)"/>
       <use xlink:href="#DejaVuSans-2212" transform="translate(128.203125 39.046875)scale(0.7)"/>
       <use xlink:href="#DejaVuSans-32" transform="translate(186.855469 39.046875)scale(0.7)"/>
       <use xlink:href="#DejaVuSans-37" transform="translate(231.391602 39.046875)scale(0.7)"/>
       <use xlink:href="#DejaVuSans-39" transform="translate(275.927734 39.046875)scale(0.7)"/>
      </g>
     </g>
    </g>
    <g id="xtick_10">
     <g id="line2d_32">
      <path d="M 206.659391 339.84 
L 206.659391 188.64 
" clip-path="url(#pa58e03cde7)" style="fill: none; stroke: #b0b0b0; stroke-width: 0.8; stroke-linecap: square"/>
     </g>
     <g id="line2d_33">
      <g>
       <use xlink:href="#mc0b560bf65" x="206.659391" y="339.84" style="stroke: #000000; stroke-width: 0.8"/>
      </g>
     </g>
     <g id="text_17">
      <!-- $\mathdefault{10^{-242}}$ -->
      <g transform="translate(190.459391 354.438438)scale(0.1 -0.1)">
       <use xlink:href="#DejaVuSans-31" transform="translate(0 0.765625)"/>
       <use xlink:href="#DejaVuSans-30" transform="translate(63.623047 0.765625)"/>
       <use xlink:href="#DejaVuSans-2212" transform="translate(128.203125 39.046875)scale(0.7)"/>
       <use xlink:href="#DejaVuSans-32" transform="translate(186.855469 39.046875)scale(0.7)"/>
       <use xlink:href="#DejaVuSans-34" transform="translate(231.391602 39.046875)scale(0.7)"/>
       <use xlink:href="#DejaVuSans-32" transform="translate(275.927734 39.046875)scale(0.7)"/>
      </g>
     </g>
    </g>
    <g id="xtick_11">
     <g id="line2d_34">
      <path d="M 282.541221 339.84 
L 282.541221 188.64 
" clip-path="url(#pa58e03cde7)" style="fill: none; stroke: #b0b0b0; stroke-width: 0.8; stroke-linecap: square"/>
     </g>
     <g id="line2d_35">
      <g>
       <use xlink:href="#mc0b560bf65" x="282.541221" y="339.84" style="stroke: #000000; stroke-width: 0.8"/>
      </g>
     </g>
     <g id="text_18">
      <!-- $\mathdefault{10^{-205}}$ -->
      <g transform="translate(266.341221 354.438438)scale(0.1 -0.1)">
       <use xlink:href="#DejaVuSans-31" transform="translate(0 0.765625)"/>
       <use xlink:href="#DejaVuSans-30" transform="translate(63.623047 0.765625)"/>
       <use xlink:href="#DejaVuSans-2212" transform="translate(128.203125 39.046875)scale(0.7)"/>
       <use xlink:href="#DejaVuSans-32" transform="translate(186.855469 39.046875)scale(0.7)"/>
       <use xlink:href="#DejaVuSans-30" transform="translate(231.391602 39.046875)scale(0.7)"/>
       <use xlink:href="#DejaVuSans-35" transform="translate(275.927734 39.046875)scale(0.7)"/>
      </g>
     </g>
    </g>
    <g id="xtick_12">
     <g id="line2d_36">
      <path d="M 358.423051 339.84 
L 358.423051 188.64 
" clip-path="url(#pa58e03cde7)" style="fill: none; stroke: #b0b0b0; stroke-width: 0.8; stroke-linecap: square"/>
     </g>
     <g id="line2d_37">
      <g>
       <use xlink:href="#mc0b560bf65" x="358.423051" y="339.84" style="stroke: #000000; stroke-width: 0.8"/>
      </g>
     </g>
     <g id="text_19">
      <!-- $\mathdefault{10^{-168}}$ -->
      <g transform="translate(342.223051 354.438438)scale(0.1 -0.1)">
       <use xlink:href="#DejaVuSans-31" transform="translate(0 0.765625)"/>
       <use xlink:href="#DejaVuSans-30" transform="translate(63.623047 0.765625)"/>
       <use xlink:href="#DejaVuSans-2212" transform="translate(128.203125 39.046875)scale(0.7)"/>
       <use xlink:href="#DejaVuSans-31" transform="translate(186.855469 39.046875)scale(0.7)"/>
       <use xlink:href="#DejaVuSans-36" transform="translate(231.391602 39.046875)scale(0.7)"/>
       <use xlink:href="#DejaVuSans-38" transform="translate(275.927734 39.046875)scale(0.7)"/>
      </g>
     </g>
    </g>
    <g id="xtick_13">
     <g id="line2d_38">
      <path d="M 434.304882 339.84 
L 434.304882 188.64 
" clip-path="url(#pa58e03cde7)" style="fill: none; stroke: #b0b0b0; stroke-width: 0.8; stroke-linecap: square"/>
     </g>
     <g id="line2d_39">
      <g>
       <use xlink:href="#mc0b560bf65" x="434.304882" y="339.84" style="stroke: #000000; stroke-width: 0.8"/>
      </g>
     </g>
     <g id="text_20">
      <!-- $\mathdefault{10^{-131}}$ -->
      <g transform="translate(418.104882 354.438438)scale(0.1 -0.1)">
       <use xlink:href="#DejaVuSans-31" transform="translate(0 0.765625)"/>
       <use xlink:href="#DejaVuSans-30" transform="translate(63.623047 0.765625)"/>
       <use xlink:href="#DejaVuSans-2212" transform="translate(128.203125 39.046875)scale(0.7)"/>
       <use xlink:href="#DejaVuSans-31" transform="translate(186.855469 39.046875)scale(0.7)"/>
       <use xlink:href="#DejaVuSans-33" transform="translate(231.391602 39.046875)scale(0.7)"/>
       <use xlink:href="#DejaVuSans-31" transform="translate(275.927734 39.046875)scale(0.7)"/>
      </g>
     </g>
    </g>
    <g id="xtick_14">
     <g id="line2d_40">
      <path d="M 510.186712 339.84 
L 510.186712 188.64 
" clip-path="url(#pa58e03cde7)" style="fill: none; stroke: #b0b0b0; stroke-width: 0.8; stroke-linecap: square"/>
     </g>
     <g id="line2d_41">
      <g>
       <use xlink:href="#mc0b560bf65" x="510.186712" y="339.84" style="stroke: #000000; stroke-width: 0.8"/>
      </g>
     </g>
     <g id="text_21">
      <!-- $\mathdefault{10^{-94}}$ -->
      <g transform="translate(496.236712 354.438438)scale(0.1 -0.1)">
       <use xlink:href="#DejaVuSans-31" transform="translate(0 0.765625)"/>
       <use xlink:href="#DejaVuSans-30" transform="translate(63.623047 0.765625)"/>
       <use xlink:href="#DejaVuSans-2212" transform="translate(128.203125 39.046875)scale(0.7)"/>
       <use xlink:href="#DejaVuSans-39" transform="translate(186.855469 39.046875)scale(0.7)"/>
       <use xlink:href="#DejaVuSans-34" transform="translate(231.391602 39.046875)scale(0.7)"/>
      </g>
     </g>
    </g>
    <g id="xtick_15">
     <g id="line2d_42">
      <path d="M 586.068542 339.84 
L 586.068542 188.64 
" clip-path="url(#pa58e03cde7)" style="fill: none; stroke: #b0b0b0; stroke-width: 0.8; stroke-linecap: square"/>
     </g>
     <g id="line2d_43">
      <g>
       <use xlink:href="#mc0b560bf65" x="586.068542" y="339.84" style="stroke: #000000; stroke-width: 0.8"/>
      </g>
     </g>
     <g id="text_22">
      <!-- $\mathdefault{10^{-57}}$ -->
      <g transform="translate(572.368542 354.438438)scale(0.1 -0.1)">
       <use xlink:href="#DejaVuSans-31" transform="translate(0 0.684375)"/>
       <use xlink:href="#DejaVuSans-30" transform="translate(63.623047 0.684375)"/>
       <use xlink:href="#DejaVuSans-2212" transform="translate(128.203125 38.965625)scale(0.7)"/>
       <use xlink:href="#DejaVuSans-35" transform="translate(186.855469 38.965625)scale(0.7)"/>
       <use xlink:href="#DejaVuSans-37" transform="translate(226.316602 38.965625)scale(0.7)"/>
      </g>
     </g>
    </g>
    <g id="xtick_16">
     <g id="line2d_44">
      <path d="M 661.950372 339.84 
L 661.950372 188.64 
" clip-path="url(#pa58e03cde7)" style="fill: none; stroke: #b0b0b0; stroke-width: 0.8; stroke-linecap: square"/>
     </g>
     <g id="line2d_45">
      <g>
       <use xlink:href="#mc0b560bf65" x="661.950372" y="339.84" style="stroke: #000000; stroke-width: 0.8"/>
      </g>
     </g>
     <g id="text_23">
      <!-- $\mathdefault{10^{-20}}$ -->
      <g transform="translate(648.000372 354.438438)scale(0.1 -0.1)">
       <use xlink:href="#DejaVuSans-31" transform="translate(0 0.765625)"/>
       <use xlink:href="#DejaVuSans-30" transform="translate(63.623047 0.765625)"/>
       <use xlink:href="#DejaVuSans-2212" transform="translate(128.203125 39.046875)scale(0.7)"/>
       <use xlink:href="#DejaVuSans-32" transform="translate(186.855469 39.046875)scale(0.7)"/>
       <use xlink:href="#DejaVuSans-30" transform="translate(231.391602 39.046875)scale(0.7)"/>
      </g>
     </g>
    </g>
   </g>
   <g id="matplotlib.axis_4">
    <g id="ytick_7">
     <g id="line2d_46">
      <path d="M 55.778125 338.690329 
L 725.378125 338.690329 
" clip-path="url(#pa58e03cde7)" style="fill: none; stroke: #b0b0b0; stroke-width: 0.8; stroke-linecap: square"/>
     </g>
     <g id="line2d_47">
      <g>
       <use xlink:href="#m4f9bdc9d46" x="55.778125" y="338.690329" style="stroke: #000000; stroke-width: 0.8"/>
      </g>
     </g>
     <g id="text_24">
      <!-- $\mathdefault{10^{-19}}$ -->
      <g transform="translate(20.878125 342.489548)scale(0.1 -0.1)">
       <use xlink:href="#DejaVuSans-31" transform="translate(0 0.765625)"/>
       <use xlink:href="#DejaVuSans-30" transform="translate(63.623047 0.765625)"/>
       <use xlink:href="#DejaVuSans-2212" transform="translate(128.203125 39.046875)scale(0.7)"/>
       <use xlink:href="#DejaVuSans-31" transform="translate(186.855469 39.046875)scale(0.7)"/>
       <use xlink:href="#DejaVuSans-39" transform="translate(231.391602 39.046875)scale(0.7)"/>
      </g>
     </g>
    </g>
    <g id="ytick_8">
     <g id="line2d_48">
      <path d="M 55.778125 299.114504 
L 725.378125 299.114504 
" clip-path="url(#pa58e03cde7)" style="fill: none; stroke: #b0b0b0; stroke-width: 0.8; stroke-linecap: square"/>
     </g>
     <g id="line2d_49">
      <g>
       <use xlink:href="#m4f9bdc9d46" x="55.778125" y="299.114504" style="stroke: #000000; stroke-width: 0.8"/>
      </g>
     </g>
     <g id="text_25">
      <!-- $\mathdefault{10^{-18}}$ -->
      <g transform="translate(20.878125 302.913723)scale(0.1 -0.1)">
       <use xlink:href="#DejaVuSans-31" transform="translate(0 0.765625)"/>
       <use xlink:href="#DejaVuSans-30" transform="translate(63.623047 0.765625)"/>
       <use xlink:href="#DejaVuSans-2212" transform="translate(128.203125 39.046875)scale(0.7)"/>
       <use xlink:href="#DejaVuSans-31" transform="translate(186.855469 39.046875)scale(0.7)"/>
       <use xlink:href="#DejaVuSans-38" transform="translate(231.391602 39.046875)scale(0.7)"/>
      </g>
     </g>
    </g>
    <g id="ytick_9">
     <g id="line2d_50">
      <path d="M 55.778125 259.53868 
L 725.378125 259.53868 
" clip-path="url(#pa58e03cde7)" style="fill: none; stroke: #b0b0b0; stroke-width: 0.8; stroke-linecap: square"/>
     </g>
     <g id="line2d_51">
      <g>
       <use xlink:href="#m4f9bdc9d46" x="55.778125" y="259.53868" style="stroke: #000000; stroke-width: 0.8"/>
      </g>
     </g>
     <g id="text_26">
      <!-- $\mathdefault{10^{-17}}$ -->
      <g transform="translate(20.878125 263.337899)scale(0.1 -0.1)">
       <use xlink:href="#DejaVuSans-31" transform="translate(0 0.684375)"/>
       <use xlink:href="#DejaVuSans-30" transform="translate(63.623047 0.684375)"/>
       <use xlink:href="#DejaVuSans-2212" transform="translate(128.203125 38.965625)scale(0.7)"/>
       <use xlink:href="#DejaVuSans-31" transform="translate(186.855469 38.965625)scale(0.7)"/>
       <use xlink:href="#DejaVuSans-37" transform="translate(231.391602 38.965625)scale(0.7)"/>
      </g>
     </g>
    </g>
    <g id="ytick_10">
     <g id="line2d_52">
      <path d="M 55.778125 219.962856 
L 725.378125 219.962856 
" clip-path="url(#pa58e03cde7)" style="fill: none; stroke: #b0b0b0; stroke-width: 0.8; stroke-linecap: square"/>
     </g>
     <g id="line2d_53">
      <g>
       <use xlink:href="#m4f9bdc9d46" x="55.778125" y="219.962856" style="stroke: #000000; stroke-width: 0.8"/>
      </g>
     </g>
     <g id="text_27">
      <!-- $\mathdefault{10^{-16}}$ -->
      <g transform="translate(20.878125 223.762075)scale(0.1 -0.1)">
       <use xlink:href="#DejaVuSans-31" transform="translate(0 0.765625)"/>
       <use xlink:href="#DejaVuSans-30" transform="translate(63.623047 0.765625)"/>
       <use xlink:href="#DejaVuSans-2212" transform="translate(128.203125 39.046875)scale(0.7)"/>
       <use xlink:href="#DejaVuSans-31" transform="translate(186.855469 39.046875)scale(0.7)"/>
       <use xlink:href="#DejaVuSans-36" transform="translate(231.391602 39.046875)scale(0.7)"/>
      </g>
     </g>
    </g>
    <g id="ytick_11">
     <g id="line2d_54">
      <defs>
       <path id="mc75cf401d5" d="M 0 0 
L -2 0 
" style="stroke: #000000; stroke-width: 0.6"/>
      </defs>
      <g>
       <use xlink:href="#mc75cf401d5" x="55.778125" y="326.776819" style="stroke: #000000; stroke-width: 0.6"/>
      </g>
     </g>
    </g>
    <g id="ytick_12">
     <g id="line2d_55">
      <g>
       <use xlink:href="#mc75cf401d5" x="55.778125" y="319.807862" style="stroke: #000000; stroke-width: 0.6"/>
      </g>
     </g>
    </g>
    <g id="ytick_13">
     <g id="line2d_56">
      <g>
       <use xlink:href="#mc75cf401d5" x="55.778125" y="314.863308" style="stroke: #000000; stroke-width: 0.6"/>
      </g>
     </g>
    </g>
    <g id="ytick_14">
     <g id="line2d_57">
      <g>
       <use xlink:href="#mc75cf401d5" x="55.778125" y="311.028015" style="stroke: #000000; stroke-width: 0.6"/>
      </g>
     </g>
    </g>
    <g id="ytick_15">
     <g id="line2d_58">
      <g>
       <use xlink:href="#mc75cf401d5" x="55.778125" y="307.894352" style="stroke: #000000; stroke-width: 0.6"/>
      </g>
     </g>
    </g>
    <g id="ytick_16">
     <g id="line2d_59">
      <g>
       <use xlink:href="#mc75cf401d5" x="55.778125" y="305.244877" style="stroke: #000000; stroke-width: 0.6"/>
      </g>
     </g>
    </g>
    <g id="ytick_17">
     <g id="line2d_60">
      <g>
       <use xlink:href="#mc75cf401d5" x="55.778125" y="302.949798" style="stroke: #000000; stroke-width: 0.6"/>
      </g>
     </g>
    </g>
    <g id="ytick_18">
     <g id="line2d_61">
      <g>
       <use xlink:href="#mc75cf401d5" x="55.778125" y="300.925395" style="stroke: #000000; stroke-width: 0.6"/>
      </g>
     </g>
    </g>
    <g id="ytick_19">
     <g id="line2d_62">
      <g>
       <use xlink:href="#mc75cf401d5" x="55.778125" y="287.200994" style="stroke: #000000; stroke-width: 0.6"/>
      </g>
     </g>
    </g>
    <g id="ytick_20">
     <g id="line2d_63">
      <g>
       <use xlink:href="#mc75cf401d5" x="55.778125" y="280.232038" style="stroke: #000000; stroke-width: 0.6"/>
      </g>
     </g>
    </g>
    <g id="ytick_21">
     <g id="line2d_64">
      <g>
       <use xlink:href="#mc75cf401d5" x="55.778125" y="275.287484" style="stroke: #000000; stroke-width: 0.6"/>
      </g>
     </g>
    </g>
    <g id="ytick_22">
     <g id="line2d_65">
      <g>
       <use xlink:href="#mc75cf401d5" x="55.778125" y="271.45219" style="stroke: #000000; stroke-width: 0.6"/>
      </g>
     </g>
    </g>
    <g id="ytick_23">
     <g id="line2d_66">
      <g>
       <use xlink:href="#mc75cf401d5" x="55.778125" y="268.318527" style="stroke: #000000; stroke-width: 0.6"/>
      </g>
     </g>
    </g>
    <g id="ytick_24">
     <g id="line2d_67">
      <g>
       <use xlink:href="#mc75cf401d5" x="55.778125" y="265.669053" style="stroke: #000000; stroke-width: 0.6"/>
      </g>
     </g>
    </g>
    <g id="ytick_25">
     <g id="line2d_68">
      <g>
       <use xlink:href="#mc75cf401d5" x="55.778125" y="263.373974" style="stroke: #000000; stroke-width: 0.6"/>
      </g>
     </g>
    </g>
    <g id="ytick_26">
     <g id="line2d_69">
      <g>
       <use xlink:href="#mc75cf401d5" x="55.778125" y="261.349571" style="stroke: #000000; stroke-width: 0.6"/>
      </g>
     </g>
    </g>
    <g id="ytick_27">
     <g id="line2d_70">
      <g>
       <use xlink:href="#mc75cf401d5" x="55.778125" y="247.62517" style="stroke: #000000; stroke-width: 0.6"/>
      </g>
     </g>
    </g>
    <g id="ytick_28">
     <g id="line2d_71">
      <g>
       <use xlink:href="#mc75cf401d5" x="55.778125" y="240.656213" style="stroke: #000000; stroke-width: 0.6"/>
      </g>
     </g>
    </g>
    <g id="ytick_29">
     <g id="line2d_72">
      <g>
       <use xlink:href="#mc75cf401d5" x="55.778125" y="235.71166" style="stroke: #000000; stroke-width: 0.6"/>
      </g>
     </g>
    </g>
    <g id="ytick_30">
     <g id="line2d_73">
      <g>
       <use xlink:href="#mc75cf401d5" x="55.778125" y="231.876366" style="stroke: #000000; stroke-width: 0.6"/>
      </g>
     </g>
    </g>
    <g id="ytick_31">
     <g id="line2d_74">
      <g>
       <use xlink:href="#mc75cf401d5" x="55.778125" y="228.742703" style="stroke: #000000; stroke-width: 0.6"/>
      </g>
     </g>
    </g>
    <g id="ytick_32">
     <g id="line2d_75">
      <g>
       <use xlink:href="#mc75cf401d5" x="55.778125" y="226.093229" style="stroke: #000000; stroke-width: 0.6"/>
      </g>
     </g>
    </g>
    <g id="ytick_33">
     <g id="line2d_76">
      <g>
       <use xlink:href="#mc75cf401d5" x="55.778125" y="223.798149" style="stroke: #000000; stroke-width: 0.6"/>
      </g>
     </g>
    </g>
    <g id="ytick_34">
     <g id="line2d_77">
      <g>
       <use xlink:href="#mc75cf401d5" x="55.778125" y="221.773746" style="stroke: #000000; stroke-width: 0.6"/>
      </g>
     </g>
    </g>
    <g id="ytick_35">
     <g id="line2d_78">
      <g>
       <use xlink:href="#mc75cf401d5" x="55.778125" y="208.049346" style="stroke: #000000; stroke-width: 0.6"/>
      </g>
     </g>
    </g>
    <g id="ytick_36">
     <g id="line2d_79">
      <g>
       <use xlink:href="#mc75cf401d5" x="55.778125" y="201.080389" style="stroke: #000000; stroke-width: 0.6"/>
      </g>
     </g>
    </g>
    <g id="ytick_37">
     <g id="line2d_80">
      <g>
       <use xlink:href="#mc75cf401d5" x="55.778125" y="196.135835" style="stroke: #000000; stroke-width: 0.6"/>
      </g>
     </g>
    </g>
    <g id="ytick_38">
     <g id="line2d_81">
      <g>
       <use xlink:href="#mc75cf401d5" x="55.778125" y="192.300542" style="stroke: #000000; stroke-width: 0.6"/>
      </g>
     </g>
    </g>
    <g id="ytick_39">
     <g id="line2d_82">
      <g>
       <use xlink:href="#mc75cf401d5" x="55.778125" y="189.166879" style="stroke: #000000; stroke-width: 0.6"/>
      </g>
     </g>
    </g>
    <g id="text_28">
     <!-- error(rate) -->
     <g transform="translate(14.798438 290.400156)rotate(-90)scale(0.1 -0.1)">
      <defs>
       <path id="DejaVuSans-65" d="M 3597 1894 
L 3597 1613 
L 953 1613 
Q 991 1019 1311 708 
Q 1631 397 2203 397 
Q 2534 397 2845 478 
Q 3156 559 3463 722 
L 3463 178 
Q 3153 47 2828 -22 
Q 2503 -91 2169 -91 
Q 1331 -91 842 396 
Q 353 884 353 1716 
Q 353 2575 817 3079 
Q 1281 3584 2069 3584 
Q 2775 3584 3186 3129 
Q 3597 2675 3597 1894 
z
M 3022 2063 
Q 3016 2534 2758 2815 
Q 2500 3097 2075 3097 
Q 1594 3097 1305 2825 
Q 1016 2553 972 2059 
L 3022 2063 
z
" transform="scale(0.015625)"/>
       <path id="DejaVuSans-72" d="M 2631 2963 
Q 2534 3019 2420 3045 
Q 2306 3072 2169 3072 
Q 1681 3072 1420 2755 
Q 1159 2438 1159 1844 
L 1159 0 
L 581 0 
L 581 3500 
L 1159 3500 
L 1159 2956 
Q 1341 3275 1631 3429 
Q 1922 3584 2338 3584 
Q 2397 3584 2469 3576 
Q 2541 3569 2628 3553 
L 2631 2963 
z
" transform="scale(0.015625)"/>
       <path id="DejaVuSans-6f" d="M 1959 3097 
Q 1497 3097 1228 2736 
Q 959 2375 959 1747 
Q 959 1119 1226 758 
Q 1494 397 1959 397 
Q 2419 397 2687 759 
Q 2956 1122 2956 1747 
Q 2956 2369 2687 2733 
Q 2419 3097 1959 3097 
z
M 1959 3584 
Q 2709 3584 3137 3096 
Q 3566 2609 3566 1747 
Q 3566 888 3137 398 
Q 2709 -91 1959 -91 
Q 1206 -91 779 398 
Q 353 888 353 1747 
Q 353 2609 779 3096 
Q 1206 3584 1959 3584 
z
" transform="scale(0.015625)"/>
       <path id="DejaVuSans-28" d="M 1984 4856 
Q 1566 4138 1362 3434 
Q 1159 2731 1159 2009 
Q 1159 1288 1364 580 
Q 1569 -128 1984 -844 
L 1484 -844 
Q 1016 -109 783 600 
Q 550 1309 550 2009 
Q 550 2706 781 3412 
Q 1013 4119 1484 4856 
L 1984 4856 
z
" transform="scale(0.015625)"/>
       <path id="DejaVuSans-29" d="M 513 4856 
L 1013 4856 
Q 1481 4119 1714 3412 
Q 1947 2706 1947 2009 
Q 1947 1309 1714 600 
Q 1481 -109 1013 -844 
L 513 -844 
Q 928 -128 1133 580 
Q 1338 1288 1338 2009 
Q 1338 2731 1133 3434 
Q 928 4138 513 4856 
z
" transform="scale(0.015625)"/>
      </defs>
      <use xlink:href="#DejaVuSans-65"/>
      <use xlink:href="#DejaVuSans-72" x="61.523438"/>
      <use xlink:href="#DejaVuSans-72" x="100.886719"/>
      <use xlink:href="#DejaVuSans-6f" x="139.75"/>
      <use xlink:href="#DejaVuSans-72" x="200.931641"/>
      <use xlink:href="#DejaVuSans-28" x="242.044922"/>
      <use xlink:href="#DejaVuSans-72" x="281.058594"/>
      <use xlink:href="#DejaVuSans-61" x="322.171875"/>
      <use xlink:href="#DejaVuSans-74" x="383.451172"/>
      <use xlink:href="#DejaVuSans-65" x="422.660156"/>
      <use xlink:href="#DejaVuSans-29" x="484.183594"/>
     </g>
    </g>
   </g>
   <g id="line2d_83">
    <path d="M 694.941761 217.291539 
L 694.324391 218.978257 
L 693.70702 207.505865 
L 693.08965 232.067713 
L 692.47228 230.523115 
L 691.854909 214.654323 
L 691.237539 207.945744 
L 690.620168 219.68764 
L 690.002798 216.54749 
L 689.385427 222.585769 
L 688.768057 222.70802 
L 688.150686 274.795789 
L 686.915945 202.614379 
L 686.298575 211.513161 
L 685.681204 211.155583 
L 685.063834 208.268738 
L 684.446464 216.098536 
L 683.829093 213.438329 
L 683.211723 278.476851 
L 682.594352 225.233864 
L 681.976982 269.156704 
L 681.359611 210.449091 
L 680.742241 253.774072 
L 680.12487 218.170713 
L 679.5075 220.025002 
L 678.890129 212.462036 
L 678.272759 216.357643 
L 677.655389 249.976425 
L 677.038018 255.356694 
L 676.420648 221.354859 
L 675.803277 206.045211 
L 675.185907 214.887261 
L 674.568536 236.412313 
L 673.951166 204.790857 
L 673.333795 208.097246 
L 672.716425 208.652738 
L 672.099054 220.195176 
L 671.481684 253.923479 
L 670.864313 208.533954 
L 670.246943 226.340246 
L 669.629573 214.851357 
L 669.012202 229.018386 
L 668.394832 232.475987 
L 667.777461 208.403593 
L 667.160091 232.524132 
L 666.54272 235.3722 
L 665.92535 214.429811 
L 665.307979 230.579017 
L 664.073238 246.234349 
L 663.455868 222.02313 
L 662.838497 235.280984 
L 662.221127 235.390626 
L 661.603757 218.437115 
L 660.986386 246.511066 
L 660.369016 226.613778 
L 659.751645 235.640386 
L 659.134275 219.99464 
L 658.516904 214.208029 
L 657.899534 222.641158 
L 657.282163 215.916921 
L 656.664793 214.197167 
L 656.047422 220.058357 
L 654.812682 253.517637 
L 654.195311 239.250436 
L 653.577941 249.767997 
L 652.96057 249.387563 
L 652.3432 243.976893 
L 651.725829 208.371063 
L 651.108459 262.743439 
L 650.491088 216.806033 
L 649.873718 207.163525 
L 649.256347 212.911406 
L 648.638977 273.098231 
L 648.021606 202.219204 
L 646.786866 247.201088 
L 646.169495 248.022447 
L 645.552125 201.854217 
L 644.934754 225.74564 
L 644.317384 257.501592 
L 643.700013 229.299494 
L 643.082643 219.18169 
L 642.465272 235.944683 
L 641.847902 221.441657 
L 641.230531 219.890031 
L 640.613161 258.986601 
L 639.99579 216.825688 
L 639.37842 249.690001 
L 638.76105 236.057384 
L 638.143679 216.700031 
L 637.526309 277.821526 
L 636.908938 218.061035 
L 636.291568 212.314896 
L 635.674197 208.118239 
L 635.056827 259.535823 
L 634.439456 211.467608 
L 633.822086 226.451487 
L 633.204715 211.509663 
L 632.587345 219.425366 
L 631.969975 220.526333 
L 631.352604 223.080016 
L 630.735234 243.105814 
L 630.117863 210.37737 
L 629.500493 294.36873 
L 628.883122 242.053729 
L 628.265752 220.780043 
L 627.648381 261.464546 
L 627.031011 255.650711 
L 626.41364 204.278702 
L 625.79627 228.778914 
L 625.178899 209.894184 
L 624.561529 206.516233 
L 623.944159 237.409909 
L 623.326788 283.476009 
L 622.709418 222.872658 
L 622.092047 223.79788 
L 621.474677 234.772786 
L 620.857306 222.328736 
L 620.239936 242.104749 
L 619.622565 238.696405 
L 619.005195 250.027496 
L 618.387824 221.358552 
L 617.770454 236.101708 
L 617.153084 226.526159 
L 616.535713 213.548517 
L 615.918343 236.612433 
L 615.300972 224.852119 
L 614.683602 247.289144 
L 614.066231 215.334879 
L 613.448861 227.946621 
L 612.83149 214.449313 
L 612.21412 212.069045 
L 611.596749 229.034594 
L 610.979379 206.498201 
L 610.362008 248.482515 
L 609.744638 211.070043 
L 609.127268 225.851514 
L 608.509897 216.446313 
L 607.892527 219.764605 
L 607.275156 241.434317 
L 606.657786 229.566695 
L 606.040415 238.591437 
L 605.423045 212.78774 
L 604.805674 296.903123 
L 603.570933 222.638992 
L 602.953563 226.831129 
L 602.336192 237.9399 
L 601.718822 243.962809 
L 601.101452 216.519262 
L 600.484081 215.063902 
L 599.866711 204.780033 
L 599.24934 212.683415 
L 598.63197 222.047974 
L 598.014599 223.983411 
L 597.397229 213.052442 
L 596.779858 217.576279 
L 596.162488 260.016194 
L 595.545117 246.612224 
L 594.927747 214.976645 
L 594.310377 223.414112 
L 593.693006 214.315102 
L 593.075636 280.762917 
L 592.458265 216.367051 
L 591.840895 224.045123 
L 591.223524 246.520759 
L 590.606154 215.174301 
L 589.988783 208.11893 
L 589.371413 254.817349 
L 588.754042 332.967273 
L 588.136672 219.432854 
L 587.519301 204.085412 
L 586.901931 209.553232 
L 586.284561 216.164378 
L 585.66719 251.79078 
L 585.04982 221.179661 
L 584.432449 254.738634 
L 583.815079 206.75674 
L 583.197708 221.445679 
L 582.580338 206.02619 
L 581.962967 216.551268 
L 581.345597 214.074074 
L 580.728226 222.856894 
L 580.110856 216.058881 
L 579.493486 226.350337 
L 578.876115 234.225714 
L 578.258745 229.441767 
L 577.641374 217.851614 
L 577.024004 209.055913 
L 576.406633 225.722854 
L 575.789263 207.287917 
L 575.171892 267.068948 
L 574.554522 244.538666 
L 573.937151 237.633537 
L 573.319781 264.653549 
L 572.70241 231.43875 
L 572.08504 231.763308 
L 571.46767 222.976627 
L 570.850299 235.519553 
L 570.232929 262.411977 
L 569.615558 227.58421 
L 568.998188 228.418236 
L 568.380817 273.944959 
L 567.763447 212.180806 
L 567.146076 218.539408 
L 566.528706 228.122207 
L 565.911335 218.81867 
L 565.293965 222.185151 
L 564.676594 216.745424 
L 564.059224 237.242294 
L 563.441854 224.154409 
L 562.824483 248.364949 
L 562.207113 259.89802 
L 561.589742 228.588071 
L 560.972372 226.51042 
L 560.355001 214.222246 
L 559.737631 217.727262 
L 559.12026 262.259261 
L 558.50289 266.176294 
L 557.885519 226.732187 
L 557.268149 227.241935 
L 556.650779 205.650608 
L 556.033408 228.215755 
L 555.416038 205.397977 
L 554.181297 224.635614 
L 553.563926 221.527159 
L 552.946556 224.700372 
L 552.329185 226.862789 
L 551.711815 224.301471 
L 551.094444 203.901025 
L 550.477074 239.283663 
L 549.859703 215.479293 
L 549.242333 213.643705 
L 548.624963 231.142977 
L 548.007592 198.449921 
L 547.390222 272.50087 
L 546.772851 200.956274 
L 546.155481 229.205008 
L 545.53811 229.841362 
L 544.92074 242.735092 
L 544.303369 285.882423 
L 543.068628 241.350845 
L 542.451258 215.219185 
L 541.833887 240.524884 
L 541.216517 232.874644 
L 540.599147 237.227006 
L 539.981776 220.292446 
L 539.364406 220.940082 
L 538.747035 240.575862 
L 538.129665 215.74426 
L 537.512294 229.18515 
L 536.894924 232.622155 
L 536.277553 206.564113 
L 535.660183 228.496312 
L 535.042812 214.093235 
L 534.425442 210.848434 
L 533.808072 213.556473 
L 533.190701 208.035487 
L 532.573331 269.484323 
L 531.95596 208.437401 
L 531.33859 212.283548 
L 530.721219 242.873943 
L 530.103849 234.729998 
L 529.486478 223.415823 
L 528.869108 267.484924 
L 528.251737 242.944287 
L 527.634367 231.331127 
L 527.016996 216.185565 
L 526.399626 246.028724 
L 525.782256 240.134828 
L 525.164885 215.258041 
L 524.547515 244.162138 
L 523.930144 229.576869 
L 523.312774 228.637523 
L 522.695403 216.77817 
L 522.078033 281.43256 
L 521.460662 227.090138 
L 520.843292 224.955344 
L 520.225921 212.703292 
L 519.608551 207.454537 
L 518.991181 220.426626 
L 518.37381 235.82297 
L 517.75644 255.189095 
L 517.139069 248.930008 
L 516.521699 240.800833 
L 515.904328 242.026347 
L 515.286958 223.463963 
L 514.669587 211.141883 
L 514.052217 248.511176 
L 513.434846 230.30358 
L 512.817476 274.364487 
L 512.200105 220.087897 
L 511.582735 215.796632 
L 510.965365 251.339625 
L 510.347994 293.411823 
L 509.730624 247.891901 
L 509.113253 229.510975 
L 508.495883 225.556947 
L 507.878512 211.641006 
L 507.261142 216.59495 
L 506.643771 270.613417 
L 506.026401 220.556873 
L 505.40903 226.765909 
L 504.79166 212.651352 
L 504.174289 219.173482 
L 503.556919 215.867907 
L 502.939549 221.254629 
L 502.322178 235.200729 
L 501.704808 236.044582 
L 501.087437 239.3401 
L 500.470067 260.428498 
L 499.852696 204.305797 
L 499.235326 208.905213 
L 498.617955 205.870922 
L 497.383214 228.400832 
L 496.148474 202.774107 
L 495.531103 201.579114 
L 494.913733 212.205844 
L 494.296362 200.227845 
L 493.678992 217.548087 
L 493.061621 221.960805 
L 492.444251 222.613632 
L 491.82688 201.872192 
L 491.20951 257.584122 
L 490.592139 226.558757 
L 489.974769 234.061444 
L 489.357398 218.282732 
L 488.740028 252.242606 
L 488.122658 221.179731 
L 487.505287 209.67083 
L 486.887917 260.571329 
L 486.270546 223.594837 
L 485.653176 220.719217 
L 485.035805 213.989092 
L 484.418435 226.178808 
L 483.801064 217.876333 
L 483.183694 216.110738 
L 482.566323 296.987114 
L 481.948953 235.173941 
L 481.331582 204.556385 
L 480.714212 209.754808 
L 480.096842 205.882272 
L 479.479471 207.431124 
L 478.862101 216.022908 
L 478.24473 218.573218 
L 477.62736 236.514172 
L 477.009989 212.934808 
L 476.392619 234.330354 
L 475.775248 260.494202 
L 475.157878 270.311038 
L 474.540507 241.42857 
L 473.923137 244.776442 
L 473.305767 199.131118 
L 472.688396 205.942193 
L 472.071026 217.428015 
L 471.453655 219.402947 
L 470.836285 218.939586 
L 470.218914 247.92139 
L 469.601544 211.89331 
L 468.984173 216.384643 
L 468.366803 214.634833 
L 467.749432 215.435416 
L 467.132062 209.800715 
L 466.514691 202.959042 
L 465.897321 217.963752 
L 465.279951 201.708605 
L 464.66258 212.113168 
L 464.04521 275.501708 
L 463.427839 213.127185 
L 462.810469 219.564522 
L 462.193098 222.49478 
L 461.575728 227.302243 
L 460.958357 205.865028 
L 460.340987 237.60085 
L 459.723616 225.171951 
L 459.106246 224.175821 
L 458.488876 232.778884 
L 457.871505 224.324981 
L 457.254135 231.959229 
L 456.636764 233.450679 
L 456.019394 226.296055 
L 455.402023 224.546166 
L 454.784653 216.99586 
L 454.167282 226.715653 
L 453.549912 213.586164 
L 452.932541 226.314877 
L 452.315171 209.535472 
L 451.6978 238.673969 
L 451.08043 209.247441 
L 450.46306 229.65177 
L 449.845689 207.334478 
L 449.228319 212.710535 
L 448.610948 221.888835 
L 447.993578 300.96592 
L 447.376207 225.146519 
L 446.758837 205.115473 
L 446.141466 205.26423 
L 445.524096 223.864323 
L 444.906725 203.306646 
L 444.289355 213.760941 
L 443.671984 214.094561 
L 443.054614 215.905505 
L 442.437244 213.025817 
L 441.819873 217.073563 
L 441.202503 238.929229 
L 440.585132 206.922512 
L 439.967762 206.411562 
L 439.350391 255.594356 
L 438.733021 227.112345 
L 438.11565 210.244781 
L 437.49828 218.096118 
L 436.880909 219.327519 
L 436.263539 240.17481 
L 435.646169 223.991285 
L 435.028798 258.669194 
L 434.411428 217.937628 
L 433.794057 221.400011 
L 433.176687 213.478206 
L 432.559316 246.315051 
L 431.941946 213.344963 
L 431.324575 204.820261 
L 430.707205 225.036488 
L 430.089834 233.584639 
L 429.472464 221.628085 
L 428.855093 236.412631 
L 428.237723 285.291917 
L 427.620353 229.117778 
L 427.002982 214.195343 
L 426.385612 222.499254 
L 425.768241 239.008578 
L 425.150871 203.723305 
L 424.5335 217.025089 
L 423.91613 241.758629 
L 423.298759 289.290995 
L 422.681389 265.187798 
L 422.064018 223.634616 
L 421.446648 221.591331 
L 420.829277 211.192816 
L 420.211907 239.004905 
L 419.594537 228.177313 
L 418.977166 207.925984 
L 418.359796 220.072357 
L 417.742425 217.239325 
L 417.125055 225.788548 
L 416.507684 201.322534 
L 415.272943 230.244209 
L 414.655573 211.93124 
L 414.038202 214.266981 
L 413.420832 211.1164 
L 412.803462 233.679998 
L 412.186091 298.910893 
L 411.568721 233.447352 
L 410.95135 262.978308 
L 410.33398 211.481102 
L 409.716609 241.228019 
L 409.099239 210.6098 
L 408.481868 208.493369 
L 407.864498 213.563647 
L 407.247127 202.745758 
L 406.629757 222.676152 
L 406.012386 222.078326 
L 405.395016 216.174989 
L 404.777646 232.050371 
L 404.160275 256.028387 
L 403.542905 224.140115 
L 402.925534 222.186236 
L 402.308164 215.343524 
L 401.690793 229.305487 
L 401.073423 214.445175 
L 400.456052 217.014023 
L 399.838682 245.514517 
L 399.221311 233.946137 
L 398.603941 204.409521 
L 397.986571 236.579065 
L 397.3692 215.546817 
L 396.75183 204.117959 
L 396.134459 212.393769 
L 395.517089 204.654974 
L 394.899718 214.013198 
L 394.282348 210.676561 
L 393.664977 210.095608 
L 393.047607 251.281456 
L 392.430236 211.908079 
L 391.812866 200.989615 
L 391.195495 214.319071 
L 390.578125 271.426909 
L 389.960755 236.332224 
L 389.343384 209.579642 
L 388.726014 212.679048 
L 388.108643 223.008405 
L 387.491273 211.060268 
L 386.873902 228.830008 
L 386.256532 226.364913 
L 385.639161 205.246875 
L 385.021791 222.517127 
L 384.40442 220.883421 
L 383.78705 213.255587 
L 383.169679 208.358089 
L 382.552309 207.339456 
L 381.934939 212.29486 
L 381.317568 215.744499 
L 380.700198 225.219476 
L 380.082827 216.070777 
L 379.465457 228.864672 
L 378.848086 262.277738 
L 378.230716 233.940852 
L 377.613345 217.331819 
L 376.995975 216.238556 
L 376.378604 226.367815 
L 375.761234 247.935851 
L 375.143864 234.739189 
L 374.526493 211.769737 
L 373.291752 246.0832 
L 372.057011 224.162267 
L 370.82227 247.009828 
L 370.2049 205.349167 
L 369.587529 311.26327 
L 368.970159 268.913413 
L 368.352788 213.107663 
L 367.735418 237.552067 
L 367.118048 253.299271 
L 366.500677 237.731471 
L 365.883307 210.019199 
L 365.265936 229.676026 
L 364.648566 211.251848 
L 364.031195 235.529665 
L 363.413825 205.334555 
L 362.796454 211.269241 
L 362.179084 237.051015 
L 361.561713 227.635159 
L 360.944343 215.414179 
L 360.326972 230.429802 
L 359.709602 207.321078 
L 359.092232 234.268642 
L 358.474861 209.56363 
L 357.857491 255.550624 
L 357.24012 207.624775 
L 356.62275 211.406076 
L 356.005379 226.904186 
L 355.388009 221.763603 
L 354.770638 222.817993 
L 354.153268 231.811356 
L 353.535897 223.406339 
L 352.918527 210.858913 
L 351.683786 253.714442 
L 351.066416 245.010518 
L 350.449045 286.830349 
L 349.831675 236.664124 
L 349.214304 226.912008 
L 348.596934 237.819191 
L 347.979563 269.678079 
L 347.362193 214.19217 
L 346.744822 225.96488 
L 346.127452 218.977848 
L 345.510081 234.59626 
L 344.892711 227.40434 
L 344.275341 245.077622 
L 343.65797 217.683625 
L 343.0406 221.940364 
L 342.423229 207.971278 
L 341.805859 222.209973 
L 341.188488 248.666315 
L 339.953747 211.684334 
L 339.336377 204.803052 
L 338.719006 229.937664 
L 338.101636 214.190047 
L 337.484266 215.376792 
L 336.866895 204.143342 
L 335.632154 270.985429 
L 335.014784 238.138707 
L 334.397413 217.504267 
L 333.780043 228.726436 
L 333.162672 217.274957 
L 332.545302 211.95489 
L 331.927931 208.772366 
L 331.310561 227.004618 
L 330.07582 213.449535 
L 329.45845 244.97095 
L 328.841079 240.939556 
L 328.223709 216.120406 
L 326.988968 207.624682 
L 326.371597 227.013519 
L 325.754227 208.090572 
L 325.136856 261.015353 
L 324.519486 254.303444 
L 323.902115 219.365993 
L 323.284745 286.009922 
L 322.667374 313.936151 
L 322.050004 208.04014 
L 321.432634 203.905208 
L 320.815263 233.350474 
L 320.197893 230.021865 
L 319.580522 214.175179 
L 318.963152 230.227432 
L 318.345781 228.486117 
L 317.728411 216.612929 
L 317.11104 217.074588 
L 316.49367 238.371322 
L 315.876299 281.998396 
L 315.258929 210.116284 
L 314.641559 225.941754 
L 314.024188 230.450144 
L 313.406818 205.832996 
L 312.789447 243.457296 
L 312.172077 221.082658 
L 311.554706 207.329579 
L 310.937336 243.557768 
L 310.319965 210.800145 
L 309.702595 207.474217 
L 309.085224 232.650118 
L 308.467854 219.596303 
L 307.850483 224.328331 
L 307.233113 215.982545 
L 306.615743 209.28955 
L 305.998372 230.624798 
L 305.381002 216.389565 
L 304.763631 237.008343 
L 304.146261 240.850109 
L 303.52889 225.97893 
L 302.91152 226.173413 
L 302.294149 234.629319 
L 301.676779 225.112967 
L 301.059408 221.780282 
L 300.442038 209.699938 
L 299.824668 224.07222 
L 299.207297 250.383454 
L 298.589927 234.160336 
L 297.972556 249.961313 
L 297.355186 245.991741 
L 296.737815 231.387668 
L 296.120445 251.06671 
L 295.503074 231.589139 
L 294.885704 243.164515 
L 294.268333 229.517254 
L 293.650963 230.920712 
L 293.033592 245.597022 
L 292.416222 252.642446 
L 291.798852 212.886644 
L 291.181481 208.832329 
L 290.564111 203.718637 
L 289.94674 317.250904 
L 289.32937 216.50895 
L 288.711999 224.076772 
L 288.094629 227.642871 
L 287.477258 229.341746 
L 286.859888 211.034226 
L 286.242517 217.242879 
L 285.625147 231.548451 
L 285.007776 227.184142 
L 284.390406 241.615337 
L 283.773036 216.224977 
L 283.155665 252.605467 
L 282.538295 240.015682 
L 281.920924 211.324636 
L 281.303554 208.70423 
L 280.686183 205.128517 
L 280.068813 213.690011 
L 279.451442 272.07975 
L 278.834072 241.700749 
L 278.216701 220.16876 
L 277.599331 243.584097 
L 276.981961 241.267399 
L 276.36459 218.240553 
L 275.74722 246.439023 
L 275.129849 218.920587 
L 274.512479 242.962216 
L 273.895108 211.952721 
L 273.277738 225.076665 
L 272.660367 219.464421 
L 272.042997 225.662548 
L 271.425626 217.332575 
L 270.808256 216.382887 
L 270.190885 244.720975 
L 269.573515 236.958309 
L 268.956145 222.457659 
L 268.338774 246.465027 
L 267.721404 208.506421 
L 267.104033 219.818193 
L 266.486663 253.904327 
L 265.869292 208.934153 
L 265.251922 245.134385 
L 264.634551 214.435383 
L 264.017181 236.167059 
L 263.39981 238.712145 
L 262.78244 224.753986 
L 262.165069 231.270847 
L 261.547699 231.602026 
L 260.930329 226.308086 
L 260.312958 213.799161 
L 259.695588 210.478962 
L 259.078217 230.234539 
L 258.460847 208.113763 
L 257.843476 214.300182 
L 257.226106 213.323277 
L 256.608735 211.278834 
L 255.991365 228.327165 
L 255.373994 227.598103 
L 254.756624 217.270358 
L 254.139254 234.842734 
L 253.521883 236.459846 
L 252.904513 218.695681 
L 252.287142 213.134711 
L 251.669772 219.973256 
L 251.052401 223.146587 
L 250.435031 211.504935 
L 249.20029 237.406478 
L 248.582919 237.981164 
L 247.965549 242.031889 
L 247.348178 233.714475 
L 246.730808 231.412309 
L 246.113438 204.333893 
L 245.496067 222.832545 
L 244.878697 214.363704 
L 244.261326 228.317532 
L 243.643956 259.571574 
L 243.026585 217.523843 
L 242.409215 211.626706 
L 241.791844 231.48513 
L 241.174474 297.388963 
L 240.557103 215.387118 
L 239.939733 258.459646 
L 239.322363 259.874541 
L 238.704992 204.038744 
L 238.087622 238.036721 
L 237.470251 213.843017 
L 236.852881 220.156672 
L 236.23551 205.743813 
L 235.61814 217.460478 
L 235.000769 219.858308 
L 234.383399 212.543169 
L 233.766028 210.306643 
L 233.148658 230.655379 
L 232.531287 223.960526 
L 231.913917 254.905449 
L 231.296547 226.364651 
L 230.679176 217.805825 
L 230.061806 200.440145 
L 229.444435 210.783284 
L 228.827065 237.284669 
L 228.209694 245.577589 
L 227.592324 206.600253 
L 226.357583 223.348237 
L 225.122842 209.730591 
L 224.505471 242.699319 
L 223.888101 262.450014 
L 223.270731 232.081592 
L 222.65336 216.341589 
L 222.03599 206.53917 
L 221.418619 220.462102 
L 220.801249 202.942404 
L 220.183878 220.873102 
L 219.566508 218.654282 
L 218.949137 213.681419 
L 218.331767 221.222275 
L 217.714396 231.388291 
L 217.097026 231.604506 
L 216.479656 225.262906 
L 215.862285 201.967138 
L 215.244915 215.149229 
L 214.627544 208.528458 
L 214.010174 235.96703 
L 212.775433 223.069305 
L 212.158062 233.243003 
L 211.540692 240.169612 
L 210.923321 208.294768 
L 210.305951 231.990576 
L 209.68858 244.823737 
L 209.07121 203.636859 
L 208.45384 221.572369 
L 207.836469 204.136926 
L 207.219099 219.434197 
L 206.601728 230.401218 
L 205.984358 236.644844 
L 205.366987 220.446155 
L 204.749617 229.918569 
L 204.132246 214.901199 
L 203.514876 224.28467 
L 202.280135 212.569436 
L 201.662764 209.656571 
L 201.045394 236.341996 
L 200.428024 204.874136 
L 199.810653 216.582826 
L 199.193283 222.746401 
L 198.575912 213.752113 
L 197.958542 222.080786 
L 197.341171 211.953014 
L 196.723801 265.788869 
L 196.10643 251.11025 
L 195.48906 221.361145 
L 194.871689 232.847915 
L 194.254319 203.699543 
L 193.636949 237.913208 
L 193.019578 227.190864 
L 192.402208 229.856573 
L 191.784837 252.530007 
L 191.167467 225.07553 
L 190.550096 252.033406 
L 189.932726 211.747345 
L 188.697985 234.384035 
L 188.080614 216.908179 
L 187.463244 219.133718 
L 186.845873 206.672801 
L 186.228503 213.807585 
L 185.611133 211.173437 
L 184.993762 207.515462 
L 184.376392 218.287512 
L 183.759021 217.07353 
L 183.141651 223.507788 
L 182.52428 203.062358 
L 181.90691 220.049613 
L 181.289539 207.884759 
L 180.672169 216.697421 
L 180.054798 294.101725 
L 179.437428 229.302041 
L 178.820058 282.793453 
L 178.202687 232.084606 
L 177.585317 218.372924 
L 176.967946 199.794285 
L 176.350576 234.866558 
L 175.733205 256.253961 
L 175.115835 270.774175 
L 174.498464 241.834774 
L 173.881094 234.204372 
L 173.263723 277.426306 
L 172.646353 215.490022 
L 172.028982 228.813586 
L 171.411612 210.566686 
L 170.794242 229.060371 
L 170.176871 209.969753 
L 169.559501 237.487046 
L 168.94213 208.994879 
L 168.32476 214.844733 
L 167.707389 231.443616 
L 167.090019 199.5831 
L 166.472648 223.029542 
L 165.855278 303.409559 
L 165.237907 215.633257 
L 164.620537 242.374736 
L 164.003166 238.552079 
L 163.385796 217.04414 
L 162.768426 205.501665 
L 162.151055 220.351632 
L 161.533685 213.931135 
L 160.916314 210.464067 
L 160.298944 231.998755 
L 159.681573 202.525878 
L 159.064203 211.868133 
L 158.446832 207.241028 
L 157.829462 195.713469 
L 157.212091 218.766989 
L 156.594721 201.337829 
L 155.977351 236.457873 
L 155.35998 219.718025 
L 154.74261 256.423036 
L 154.125239 210.809877 
L 153.507869 241.56152 
L 152.890498 217.050533 
L 152.273128 235.524834 
L 151.655757 213.925356 
L 151.038387 223.220204 
L 150.421016 219.330417 
L 149.803646 209.209696 
L 149.186275 206.488584 
L 148.568905 233.618804 
L 147.951535 235.216585 
L 147.334164 213.64414 
L 146.716794 217.893839 
L 146.099423 235.134726 
L 145.482053 223.14869 
L 144.864682 238.187622 
L 144.247312 209.345443 
L 143.629941 210.736751 
L 143.012571 252.883268 
L 142.3952 214.23427 
L 141.77783 237.3997 
L 141.160459 252.005601 
L 140.543089 235.318223 
L 139.308348 208.774388 
L 138.690978 209.966045 
L 138.073607 210.668585 
L 137.456237 237.297718 
L 136.838866 239.042846 
L 136.221496 215.405894 
L 135.604125 218.749646 
L 134.986755 219.332665 
L 134.369384 224.381468 
L 133.752014 205.506453 
L 133.134644 230.994078 
L 131.899903 251.543322 
L 131.282532 271.857271 
L 130.665162 214.636617 
L 130.047791 230.747328 
L 129.430421 224.802383 
L 128.81305 213.451598 
L 128.19568 242.512278 
L 127.578309 212.37898 
L 126.960939 228.717252 
L 126.343568 239.683006 
L 125.726198 206.786537 
L 125.108828 299.012857 
L 124.491457 224.352309 
L 123.874087 222.523121 
L 123.256716 221.94955 
L 122.639346 219.063511 
L 122.021975 213.984546 
L 121.404605 243.554434 
L 120.787234 223.859036 
L 120.169864 217.617673 
L 119.552493 221.354302 
L 118.935123 210.84132 
L 118.317753 219.592455 
L 117.700382 214.60332 
L 117.083012 207.190411 
L 116.465641 207.996739 
L 115.848271 235.510807 
L 115.2309 212.643993 
L 114.61353 207.169962 
L 113.996159 217.179636 
L 113.378789 208.639704 
L 112.761418 205.817014 
L 111.526677 234.040717 
L 110.909307 206.248688 
L 110.291937 211.091354 
L 109.674566 235.003745 
L 109.057196 234.409167 
L 108.439825 248.744014 
L 107.822455 237.310332 
L 107.205084 215.951317 
L 106.587714 208.440783 
L 105.970343 240.048572 
L 105.352973 314.427925 
L 104.735602 227.049107 
L 104.118232 209.546912 
L 103.500861 254.065667 
L 102.883491 251.332669 
L 102.266121 229.72861 
L 101.64875 215.69162 
L 100.414009 217.861278 
L 99.796639 195.512727 
L 99.179268 235.982886 
L 98.561898 210.41497 
L 97.944527 202.459652 
L 97.327157 218.489257 
L 96.709786 210.475756 
L 96.092416 196.098464 
L 95.475046 300.530942 
L 94.857675 213.328645 
L 94.240305 213.069647 
L 93.622934 202.137194 
L 93.005564 198.017948 
L 92.388193 221.495325 
L 91.770823 205.78959 
L 91.153452 217.39642 
L 89.918711 229.726622 
L 89.301341 213.789568 
L 88.68397 233.393679 
L 88.0666 208.651124 
L 87.44923 212.36079 
L 86.831859 229.300363 
L 86.214489 273.299523 
L 86.214489 273.299523 
" clip-path="url(#pa58e03cde7)" style="fill: none; stroke: #1f77b4; stroke-width: 1.5; stroke-linecap: square"/>
   </g>
   <g id="patch_8">
    <path d="M 55.778125 339.84 
L 55.778125 188.64 
" style="fill: none; stroke: #000000; stroke-width: 0.8; stroke-linejoin: miter; stroke-linecap: square"/>
   </g>
   <g id="patch_9">
    <path d="M 725.378125 339.84 
L 725.378125 188.64 
" style="fill: none; stroke: #000000; stroke-width: 0.8; stroke-linejoin: miter; stroke-linecap: square"/>
   </g>
   <g id="patch_10">
    <path d="M 55.778125 339.84 
L 725.378125 339.84 
" style="fill: none; stroke: #000000; stroke-width: 0.8; stroke-linejoin: miter; stroke-linecap: square"/>
   </g>
   <g id="patch_11">
    <path d="M 55.778125 188.64 
L 725.378125 188.64 
" style="fill: none; stroke: #000000; stroke-width: 0.8; stroke-linejoin: miter; stroke-linecap: square"/>
   </g>
  </g>
 </g>
 <defs>
  <clipPath id="pafb01f1f3e">
   <rect x="55.778125" y="7.2" width="669.6" height="151.2"/>
  </clipPath>
  <clipPath id="pa58e03cde7">
   <rect x="55.778125" y="188.64" width="669.6" height="151.2"/>
  </clipPath>
 </defs>
</svg>
