<?xml version="1.0" encoding="utf-8" standalone="no"?>
<!DOCTYPE svg PUBLIC "-//W3C//DTD SVG 1.1//EN"
  "http://www.w3.org/Graphics/SVG/1.1/DTD/svg11.dtd">
<svg xmlns:xlink="http://www.w3.org/1999/xlink" width="732.578125pt" height="363.718125pt" viewBox="0 0 732.578125 363.718125" xmlns="http://www.w3.org/2000/svg" version="1.1">
 <metadata>
  <rdf:RDF xmlns:dc="http://purl.org/dc/elements/1.1/" xmlns:cc="http://creativecommons.org/ns#" xmlns:rdf="http://www.w3.org/1999/02/22-rdf-syntax-ns#">
   <cc:Work>
    <dc:type rdf:resource="http://purl.org/dc/dcmitype/StillImage"/>
    <dc:date>2024-05-20T01:01:23.674472</dc:date>
    <dc:format>image/svg+xml</dc:format>
    <dc:creator>
     <cc:Agent>
      <dc:title>Matplotlib v3.5.2, https://matplotlib.org/</dc:title>
     </cc:Agent>
    </dc:creator>
   </cc:Work>
  </rdf:RDF>
 </metadata>
 <defs>
  <style type="text/css">*{stroke-linejoin: round; stroke-linecap: butt}</style>
 </defs>
 <g id="figure_1">
  <g id="patch_1">
   <path d="M 0 363.718125 
L 732.578125 363.718125 
L 732.578125 0 
L 0 0 
z
" style="fill: #ffffff"/>
  </g>
  <g id="axes_1">
   <g id="patch_2">
    <path d="M 55.778125 158.4 
L 725.378125 158.4 
L 725.378125 7.2 
L 55.778125 7.2 
z
" style="fill: #ffffff"/>
   </g>
   <g id="matplotlib.axis_1">
    <g id="xtick_1">
     <g id="line2d_1">
      <path d="M 86.660988 158.4 
L 86.660988 7.2 
" clip-path="url(#p18c939d5a8)" style="fill: none; stroke: #b0b0b0; stroke-width: 0.8; stroke-linecap: square"/>
     </g>
     <g id="line2d_2">
      <defs>
       <path id="m8273025e9d" d="M 0 0 
L 0 3.5 
" style="stroke: #000000; stroke-width: 0.8"/>
      </defs>
      <g>
       <use xlink:href="#m8273025e9d" x="86.660988" y="158.4" style="stroke: #000000; stroke-width: 0.8"/>
      </g>
     </g>
     <g id="text_1">
      <!-- 0.30 -->
      <g transform="translate(75.528175 172.998437)scale(0.1 -0.1)">
       <defs>
        <path id="DejaVuSans-30" d="M 2034 4250 
Q 1547 4250 1301 3770 
Q 1056 3291 1056 2328 
Q 1056 1369 1301 889 
Q 1547 409 2034 409 
Q 2525 409 2770 889 
Q 3016 1369 3016 2328 
Q 3016 3291 2770 3770 
Q 2525 4250 2034 4250 
z
M 2034 4750 
Q 2819 4750 3233 4129 
Q 3647 3509 3647 2328 
Q 3647 1150 3233 529 
Q 2819 -91 2034 -91 
Q 1250 -91 836 529 
Q 422 1150 422 2328 
Q 422 3509 836 4129 
Q 1250 4750 2034 4750 
z
" transform="scale(0.015625)"/>
        <path id="DejaVuSans-2e" d="M 684 794 
L 1344 794 
L 1344 0 
L 684 0 
L 684 794 
z
" transform="scale(0.015625)"/>
        <path id="DejaVuSans-33" d="M 2597 2516 
Q 3050 2419 3304 2112 
Q 3559 1806 3559 1356 
Q 3559 666 3084 287 
Q 2609 -91 1734 -91 
Q 1441 -91 1130 -33 
Q 819 25 488 141 
L 488 750 
Q 750 597 1062 519 
Q 1375 441 1716 441 
Q 2309 441 2620 675 
Q 2931 909 2931 1356 
Q 2931 1769 2642 2001 
Q 2353 2234 1838 2234 
L 1294 2234 
L 1294 2753 
L 1863 2753 
Q 2328 2753 2575 2939 
Q 2822 3125 2822 3475 
Q 2822 3834 2567 4026 
Q 2313 4219 1838 4219 
Q 1578 4219 1281 4162 
Q 984 4106 628 3988 
L 628 4550 
Q 988 4650 1302 4700 
Q 1616 4750 1894 4750 
Q 2613 4750 3031 4423 
Q 3450 4097 3450 3541 
Q 3450 3153 3228 2886 
Q 3006 2619 2597 2516 
z
" transform="scale(0.015625)"/>
       </defs>
       <use xlink:href="#DejaVuSans-30"/>
       <use xlink:href="#DejaVuSans-2e" x="63.623047"/>
       <use xlink:href="#DejaVuSans-33" x="95.410156"/>
       <use xlink:href="#DejaVuSans-30" x="159.033203"/>
      </g>
     </g>
    </g>
    <g id="xtick_2">
     <g id="line2d_3">
      <path d="M 208.585042 158.4 
L 208.585042 7.2 
" clip-path="url(#p18c939d5a8)" style="fill: none; stroke: #b0b0b0; stroke-width: 0.8; stroke-linecap: square"/>
     </g>
     <g id="line2d_4">
      <g>
       <use xlink:href="#m8273025e9d" x="208.585042" y="158.4" style="stroke: #000000; stroke-width: 0.8"/>
      </g>
     </g>
     <g id="text_2">
      <!-- 0.32 -->
      <g transform="translate(197.45223 172.998437)scale(0.1 -0.1)">
       <defs>
        <path id="DejaVuSans-32" d="M 1228 531 
L 3431 531 
L 3431 0 
L 469 0 
L 469 531 
Q 828 903 1448 1529 
Q 2069 2156 2228 2338 
Q 2531 2678 2651 2914 
Q 2772 3150 2772 3378 
Q 2772 3750 2511 3984 
Q 2250 4219 1831 4219 
Q 1534 4219 1204 4116 
Q 875 4013 500 3803 
L 500 4441 
Q 881 4594 1212 4672 
Q 1544 4750 1819 4750 
Q 2544 4750 2975 4387 
Q 3406 4025 3406 3419 
Q 3406 3131 3298 2873 
Q 3191 2616 2906 2266 
Q 2828 2175 2409 1742 
Q 1991 1309 1228 531 
z
" transform="scale(0.015625)"/>
       </defs>
       <use xlink:href="#DejaVuSans-30"/>
       <use xlink:href="#DejaVuSans-2e" x="63.623047"/>
       <use xlink:href="#DejaVuSans-33" x="95.410156"/>
       <use xlink:href="#DejaVuSans-32" x="159.033203"/>
      </g>
     </g>
    </g>
    <g id="xtick_3">
     <g id="line2d_5">
      <path d="M 330.509096 158.4 
L 330.509096 7.2 
" clip-path="url(#p18c939d5a8)" style="fill: none; stroke: #b0b0b0; stroke-width: 0.8; stroke-linecap: square"/>
     </g>
     <g id="line2d_6">
      <g>
       <use xlink:href="#m8273025e9d" x="330.509096" y="158.4" style="stroke: #000000; stroke-width: 0.8"/>
      </g>
     </g>
     <g id="text_3">
      <!-- 0.34 -->
      <g transform="translate(319.376284 172.998437)scale(0.1 -0.1)">
       <defs>
        <path id="DejaVuSans-34" d="M 2419 4116 
L 825 1625 
L 2419 1625 
L 2419 4116 
z
M 2253 4666 
L 3047 4666 
L 3047 1625 
L 3713 1625 
L 3713 1100 
L 3047 1100 
L 3047 0 
L 2419 0 
L 2419 1100 
L 313 1100 
L 313 1709 
L 2253 4666 
z
" transform="scale(0.015625)"/>
       </defs>
       <use xlink:href="#DejaVuSans-30"/>
       <use xlink:href="#DejaVuSans-2e" x="63.623047"/>
       <use xlink:href="#DejaVuSans-33" x="95.410156"/>
       <use xlink:href="#DejaVuSans-34" x="159.033203"/>
      </g>
     </g>
    </g>
    <g id="xtick_4">
     <g id="line2d_7">
      <path d="M 452.433151 158.4 
L 452.433151 7.2 
" clip-path="url(#p18c939d5a8)" style="fill: none; stroke: #b0b0b0; stroke-width: 0.8; stroke-linecap: square"/>
     </g>
     <g id="line2d_8">
      <g>
       <use xlink:href="#m8273025e9d" x="452.433151" y="158.4" style="stroke: #000000; stroke-width: 0.8"/>
      </g>
     </g>
     <g id="text_4">
      <!-- 0.36 -->
      <g transform="translate(441.300338 172.998437)scale(0.1 -0.1)">
       <defs>
        <path id="DejaVuSans-36" d="M 2113 2584 
Q 1688 2584 1439 2293 
Q 1191 2003 1191 1497 
Q 1191 994 1439 701 
Q 1688 409 2113 409 
Q 2538 409 2786 701 
Q 3034 994 3034 1497 
Q 3034 2003 2786 2293 
Q 2538 2584 2113 2584 
z
M 3366 4563 
L 3366 3988 
Q 3128 4100 2886 4159 
Q 2644 4219 2406 4219 
Q 1781 4219 1451 3797 
Q 1122 3375 1075 2522 
Q 1259 2794 1537 2939 
Q 1816 3084 2150 3084 
Q 2853 3084 3261 2657 
Q 3669 2231 3669 1497 
Q 3669 778 3244 343 
Q 2819 -91 2113 -91 
Q 1303 -91 875 529 
Q 447 1150 447 2328 
Q 447 3434 972 4092 
Q 1497 4750 2381 4750 
Q 2619 4750 2861 4703 
Q 3103 4656 3366 4563 
z
" transform="scale(0.015625)"/>
       </defs>
       <use xlink:href="#DejaVuSans-30"/>
       <use xlink:href="#DejaVuSans-2e" x="63.623047"/>
       <use xlink:href="#DejaVuSans-33" x="95.410156"/>
       <use xlink:href="#DejaVuSans-36" x="159.033203"/>
      </g>
     </g>
    </g>
    <g id="xtick_5">
     <g id="line2d_9">
      <path d="M 574.357205 158.4 
L 574.357205 7.2 
" clip-path="url(#p18c939d5a8)" style="fill: none; stroke: #b0b0b0; stroke-width: 0.8; stroke-linecap: square"/>
     </g>
     <g id="line2d_10">
      <g>
       <use xlink:href="#m8273025e9d" x="574.357205" y="158.4" style="stroke: #000000; stroke-width: 0.8"/>
      </g>
     </g>
     <g id="text_5">
      <!-- 0.38 -->
      <g transform="translate(563.224392 172.998437)scale(0.1 -0.1)">
       <defs>
        <path id="DejaVuSans-38" d="M 2034 2216 
Q 1584 2216 1326 1975 
Q 1069 1734 1069 1313 
Q 1069 891 1326 650 
Q 1584 409 2034 409 
Q 2484 409 2743 651 
Q 3003 894 3003 1313 
Q 3003 1734 2745 1975 
Q 2488 2216 2034 2216 
z
M 1403 2484 
Q 997 2584 770 2862 
Q 544 3141 544 3541 
Q 544 4100 942 4425 
Q 1341 4750 2034 4750 
Q 2731 4750 3128 4425 
Q 3525 4100 3525 3541 
Q 3525 3141 3298 2862 
Q 3072 2584 2669 2484 
Q 3125 2378 3379 2068 
Q 3634 1759 3634 1313 
Q 3634 634 3220 271 
Q 2806 -91 2034 -91 
Q 1263 -91 848 271 
Q 434 634 434 1313 
Q 434 1759 690 2068 
Q 947 2378 1403 2484 
z
M 1172 3481 
Q 1172 3119 1398 2916 
Q 1625 2713 2034 2713 
Q 2441 2713 2670 2916 
Q 2900 3119 2900 3481 
Q 2900 3844 2670 4047 
Q 2441 4250 2034 4250 
Q 1625 4250 1398 4047 
Q 1172 3844 1172 3481 
z
" transform="scale(0.015625)"/>
       </defs>
       <use xlink:href="#DejaVuSans-30"/>
       <use xlink:href="#DejaVuSans-2e" x="63.623047"/>
       <use xlink:href="#DejaVuSans-33" x="95.410156"/>
       <use xlink:href="#DejaVuSans-38" x="159.033203"/>
      </g>
     </g>
    </g>
    <g id="xtick_6">
     <g id="line2d_11">
      <path d="M 696.281259 158.4 
L 696.281259 7.2 
" clip-path="url(#p18c939d5a8)" style="fill: none; stroke: #b0b0b0; stroke-width: 0.8; stroke-linecap: square"/>
     </g>
     <g id="line2d_12">
      <g>
       <use xlink:href="#m8273025e9d" x="696.281259" y="158.4" style="stroke: #000000; stroke-width: 0.8"/>
      </g>
     </g>
     <g id="text_6">
      <!-- 0.40 -->
      <g transform="translate(685.148447 172.998437)scale(0.1 -0.1)">
       <use xlink:href="#DejaVuSans-30"/>
       <use xlink:href="#DejaVuSans-2e" x="63.623047"/>
       <use xlink:href="#DejaVuSans-34" x="95.410156"/>
       <use xlink:href="#DejaVuSans-30" x="159.033203"/>
      </g>
     </g>
    </g>
   </g>
   <g id="matplotlib.axis_2">
    <g id="ytick_1">
     <g id="line2d_13">
      <path d="M 55.778125 136.624626 
L 725.378125 136.624626 
" clip-path="url(#p18c939d5a8)" style="fill: none; stroke: #b0b0b0; stroke-width: 0.8; stroke-linecap: square"/>
     </g>
     <g id="line2d_14">
      <defs>
       <path id="m3dfbe56829" d="M 0 0 
L -3.5 0 
" style="stroke: #000000; stroke-width: 0.8"/>
      </defs>
      <g>
       <use xlink:href="#m3dfbe56829" x="55.778125" y="136.624626" style="stroke: #000000; stroke-width: 0.8"/>
      </g>
     </g>
     <g id="text_7">
      <!-- −0.2 -->
      <g transform="translate(24.495313 140.423845)scale(0.1 -0.1)">
       <defs>
        <path id="DejaVuSans-2212" d="M 678 2272 
L 4684 2272 
L 4684 1741 
L 678 1741 
L 678 2272 
z
" transform="scale(0.015625)"/>
       </defs>
       <use xlink:href="#DejaVuSans-2212"/>
       <use xlink:href="#DejaVuSans-30" x="83.789062"/>
       <use xlink:href="#DejaVuSans-2e" x="147.412109"/>
       <use xlink:href="#DejaVuSans-32" x="179.199219"/>
      </g>
     </g>
    </g>
    <g id="ytick_2">
     <g id="line2d_15">
      <path d="M 55.778125 100.02434 
L 725.378125 100.02434 
" clip-path="url(#p18c939d5a8)" style="fill: none; stroke: #b0b0b0; stroke-width: 0.8; stroke-linecap: square"/>
     </g>
     <g id="line2d_16">
      <g>
       <use xlink:href="#m3dfbe56829" x="55.778125" y="100.02434" style="stroke: #000000; stroke-width: 0.8"/>
      </g>
     </g>
     <g id="text_8">
      <!-- −0.1 -->
      <g transform="translate(24.495313 103.823559)scale(0.1 -0.1)">
       <defs>
        <path id="DejaVuSans-31" d="M 794 531 
L 1825 531 
L 1825 4091 
L 703 3866 
L 703 4441 
L 1819 4666 
L 2450 4666 
L 2450 531 
L 3481 531 
L 3481 0 
L 794 0 
L 794 531 
z
" transform="scale(0.015625)"/>
       </defs>
       <use xlink:href="#DejaVuSans-2212"/>
       <use xlink:href="#DejaVuSans-30" x="83.789062"/>
       <use xlink:href="#DejaVuSans-2e" x="147.412109"/>
       <use xlink:href="#DejaVuSans-31" x="179.199219"/>
      </g>
     </g>
    </g>
    <g id="ytick_3">
     <g id="line2d_17">
      <path d="M 55.778125 63.424054 
L 725.378125 63.424054 
" clip-path="url(#p18c939d5a8)" style="fill: none; stroke: #b0b0b0; stroke-width: 0.8; stroke-linecap: square"/>
     </g>
     <g id="line2d_18">
      <g>
       <use xlink:href="#m3dfbe56829" x="55.778125" y="63.424054" style="stroke: #000000; stroke-width: 0.8"/>
      </g>
     </g>
     <g id="text_9">
      <!-- 0.0 -->
      <g transform="translate(32.875 67.223273)scale(0.1 -0.1)">
       <use xlink:href="#DejaVuSans-30"/>
       <use xlink:href="#DejaVuSans-2e" x="63.623047"/>
       <use xlink:href="#DejaVuSans-30" x="95.410156"/>
      </g>
     </g>
    </g>
    <g id="ytick_4">
     <g id="line2d_19">
      <path d="M 55.778125 26.823768 
L 725.378125 26.823768 
" clip-path="url(#p18c939d5a8)" style="fill: none; stroke: #b0b0b0; stroke-width: 0.8; stroke-linecap: square"/>
     </g>
     <g id="line2d_20">
      <g>
       <use xlink:href="#m3dfbe56829" x="55.778125" y="26.823768" style="stroke: #000000; stroke-width: 0.8"/>
      </g>
     </g>
     <g id="text_10">
      <!-- 0.1 -->
      <g transform="translate(32.875 30.622986)scale(0.1 -0.1)">
       <use xlink:href="#DejaVuSans-30"/>
       <use xlink:href="#DejaVuSans-2e" x="63.623047"/>
       <use xlink:href="#DejaVuSans-31" x="95.410156"/>
      </g>
     </g>
    </g>
    <g id="text_11">
     <!-- actual -->
     <g transform="translate(18.415625 98.195312)rotate(-90)scale(0.1 -0.1)">
      <defs>
       <path id="DejaVuSans-61" d="M 2194 1759 
Q 1497 1759 1228 1600 
Q 959 1441 959 1056 
Q 959 750 1161 570 
Q 1363 391 1709 391 
Q 2188 391 2477 730 
Q 2766 1069 2766 1631 
L 2766 1759 
L 2194 1759 
z
M 3341 1997 
L 3341 0 
L 2766 0 
L 2766 531 
Q 2569 213 2275 61 
Q 1981 -91 1556 -91 
Q 1019 -91 701 211 
Q 384 513 384 1019 
Q 384 1609 779 1909 
Q 1175 2209 1959 2209 
L 2766 2209 
L 2766 2266 
Q 2766 2663 2505 2880 
Q 2244 3097 1772 3097 
Q 1472 3097 1187 3025 
Q 903 2953 641 2809 
L 641 3341 
Q 956 3463 1253 3523 
Q 1550 3584 1831 3584 
Q 2591 3584 2966 3190 
Q 3341 2797 3341 1997 
z
" transform="scale(0.015625)"/>
       <path id="DejaVuSans-63" d="M 3122 3366 
L 3122 2828 
Q 2878 2963 2633 3030 
Q 2388 3097 2138 3097 
Q 1578 3097 1268 2742 
Q 959 2388 959 1747 
Q 959 1106 1268 751 
Q 1578 397 2138 397 
Q 2388 397 2633 464 
Q 2878 531 3122 666 
L 3122 134 
Q 2881 22 2623 -34 
Q 2366 -91 2075 -91 
Q 1284 -91 818 406 
Q 353 903 353 1747 
Q 353 2603 823 3093 
Q 1294 3584 2113 3584 
Q 2378 3584 2631 3529 
Q 2884 3475 3122 3366 
z
" transform="scale(0.015625)"/>
       <path id="DejaVuSans-74" d="M 1172 4494 
L 1172 3500 
L 2356 3500 
L 2356 3053 
L 1172 3053 
L 1172 1153 
Q 1172 725 1289 603 
Q 1406 481 1766 481 
L 2356 481 
L 2356 0 
L 1766 0 
Q 1100 0 847 248 
Q 594 497 594 1153 
L 594 3053 
L 172 3053 
L 172 3500 
L 594 3500 
L 594 4494 
L 1172 4494 
z
" transform="scale(0.015625)"/>
       <path id="DejaVuSans-75" d="M 544 1381 
L 544 3500 
L 1119 3500 
L 1119 1403 
Q 1119 906 1312 657 
Q 1506 409 1894 409 
Q 2359 409 2629 706 
Q 2900 1003 2900 1516 
L 2900 3500 
L 3475 3500 
L 3475 0 
L 2900 0 
L 2900 538 
Q 2691 219 2414 64 
Q 2138 -91 1772 -91 
Q 1169 -91 856 284 
Q 544 659 544 1381 
z
M 1991 3584 
L 1991 3584 
z
" transform="scale(0.015625)"/>
       <path id="DejaVuSans-6c" d="M 603 4863 
L 1178 4863 
L 1178 0 
L 603 0 
L 603 4863 
z
" transform="scale(0.015625)"/>
      </defs>
      <use xlink:href="#DejaVuSans-61"/>
      <use xlink:href="#DejaVuSans-63" x="61.279297"/>
      <use xlink:href="#DejaVuSans-74" x="116.259766"/>
      <use xlink:href="#DejaVuSans-75" x="155.46875"/>
      <use xlink:href="#DejaVuSans-61" x="218.847656"/>
      <use xlink:href="#DejaVuSans-6c" x="280.126953"/>
     </g>
    </g>
   </g>
   <g id="line2d_21">
    <path d="M 86.214489 151.527273 
L 183.700152 130.428516 
L 270.7675 111.360795 
L 351.13736 93.535753 
L 426.298063 76.642097 
L 497.737938 60.359202 
L 565.456987 44.699765 
L 630.94354 29.328984 
L 693.453431 14.430299 
L 694.941761 14.072727 
L 694.941761 14.072727 
" clip-path="url(#p18c939d5a8)" style="fill: none; stroke: #1f77b4; stroke-width: 1.5; stroke-linecap: square"/>
   </g>
   <g id="patch_3">
    <path d="M 55.778125 158.4 
L 55.778125 7.2 
" style="fill: none; stroke: #000000; stroke-width: 0.8; stroke-linejoin: miter; stroke-linecap: square"/>
   </g>
   <g id="patch_4">
    <path d="M 725.378125 158.4 
L 725.378125 7.2 
" style="fill: none; stroke: #000000; stroke-width: 0.8; stroke-linejoin: miter; stroke-linecap: square"/>
   </g>
   <g id="patch_5">
    <path d="M 55.778125 158.4 
L 725.378125 158.4 
" style="fill: none; stroke: #000000; stroke-width: 0.8; stroke-linejoin: miter; stroke-linecap: square"/>
   </g>
   <g id="patch_6">
    <path d="M 55.778125 7.2 
L 725.378125 7.2 
" style="fill: none; stroke: #000000; stroke-width: 0.8; stroke-linejoin: miter; stroke-linecap: square"/>
   </g>
  </g>
  <g id="axes_2">
   <g id="patch_7">
    <path d="M 55.778125 339.84 
L 725.378125 339.84 
L 725.378125 188.64 
L 55.778125 188.64 
z
" style="fill: #ffffff"/>
   </g>
   <g id="matplotlib.axis_3">
    <g id="xtick_7">
     <g id="line2d_22">
      <path d="M 86.660988 339.84 
L 86.660988 188.64 
" clip-path="url(#p2a5ee0c814)" style="fill: none; stroke: #b0b0b0; stroke-width: 0.8; stroke-linecap: square"/>
     </g>
     <g id="line2d_23">
      <g>
       <use xlink:href="#m8273025e9d" x="86.660988" y="339.84" style="stroke: #000000; stroke-width: 0.8"/>
      </g>
     </g>
     <g id="text_12">
      <!-- 0.30 -->
      <g transform="translate(75.528175 354.438437)scale(0.1 -0.1)">
       <use xlink:href="#DejaVuSans-30"/>
       <use xlink:href="#DejaVuSans-2e" x="63.623047"/>
       <use xlink:href="#DejaVuSans-33" x="95.410156"/>
       <use xlink:href="#DejaVuSans-30" x="159.033203"/>
      </g>
     </g>
    </g>
    <g id="xtick_8">
     <g id="line2d_24">
      <path d="M 208.585042 339.84 
L 208.585042 188.64 
" clip-path="url(#p2a5ee0c814)" style="fill: none; stroke: #b0b0b0; stroke-width: 0.8; stroke-linecap: square"/>
     </g>
     <g id="line2d_25">
      <g>
       <use xlink:href="#m8273025e9d" x="208.585042" y="339.84" style="stroke: #000000; stroke-width: 0.8"/>
      </g>
     </g>
     <g id="text_13">
      <!-- 0.32 -->
      <g transform="translate(197.45223 354.438437)scale(0.1 -0.1)">
       <use xlink:href="#DejaVuSans-30"/>
       <use xlink:href="#DejaVuSans-2e" x="63.623047"/>
       <use xlink:href="#DejaVuSans-33" x="95.410156"/>
       <use xlink:href="#DejaVuSans-32" x="159.033203"/>
      </g>
     </g>
    </g>
    <g id="xtick_9">
     <g id="line2d_26">
      <path d="M 330.509096 339.84 
L 330.509096 188.64 
" clip-path="url(#p2a5ee0c814)" style="fill: none; stroke: #b0b0b0; stroke-width: 0.8; stroke-linecap: square"/>
     </g>
     <g id="line2d_27">
      <g>
       <use xlink:href="#m8273025e9d" x="330.509096" y="339.84" style="stroke: #000000; stroke-width: 0.8"/>
      </g>
     </g>
     <g id="text_14">
      <!-- 0.34 -->
      <g transform="translate(319.376284 354.438437)scale(0.1 -0.1)">
       <use xlink:href="#DejaVuSans-30"/>
       <use xlink:href="#DejaVuSans-2e" x="63.623047"/>
       <use xlink:href="#DejaVuSans-33" x="95.410156"/>
       <use xlink:href="#DejaVuSans-34" x="159.033203"/>
      </g>
     </g>
    </g>
    <g id="xtick_10">
     <g id="line2d_28">
      <path d="M 452.433151 339.84 
L 452.433151 188.64 
" clip-path="url(#p2a5ee0c814)" style="fill: none; stroke: #b0b0b0; stroke-width: 0.8; stroke-linecap: square"/>
     </g>
     <g id="line2d_29">
      <g>
       <use xlink:href="#m8273025e9d" x="452.433151" y="339.84" style="stroke: #000000; stroke-width: 0.8"/>
      </g>
     </g>
     <g id="text_15">
      <!-- 0.36 -->
      <g transform="translate(441.300338 354.438437)scale(0.1 -0.1)">
       <use xlink:href="#DejaVuSans-30"/>
       <use xlink:href="#DejaVuSans-2e" x="63.623047"/>
       <use xlink:href="#DejaVuSans-33" x="95.410156"/>
       <use xlink:href="#DejaVuSans-36" x="159.033203"/>
      </g>
     </g>
    </g>
    <g id="xtick_11">
     <g id="line2d_30">
      <path d="M 574.357205 339.84 
L 574.357205 188.64 
" clip-path="url(#p2a5ee0c814)" style="fill: none; stroke: #b0b0b0; stroke-width: 0.8; stroke-linecap: square"/>
     </g>
     <g id="line2d_31">
      <g>
       <use xlink:href="#m8273025e9d" x="574.357205" y="339.84" style="stroke: #000000; stroke-width: 0.8"/>
      </g>
     </g>
     <g id="text_16">
      <!-- 0.38 -->
      <g transform="translate(563.224392 354.438437)scale(0.1 -0.1)">
       <use xlink:href="#DejaVuSans-30"/>
       <use xlink:href="#DejaVuSans-2e" x="63.623047"/>
       <use xlink:href="#DejaVuSans-33" x="95.410156"/>
       <use xlink:href="#DejaVuSans-38" x="159.033203"/>
      </g>
     </g>
    </g>
    <g id="xtick_12">
     <g id="line2d_32">
      <path d="M 696.281259 339.84 
L 696.281259 188.64 
" clip-path="url(#p2a5ee0c814)" style="fill: none; stroke: #b0b0b0; stroke-width: 0.8; stroke-linecap: square"/>
     </g>
     <g id="line2d_33">
      <g>
       <use xlink:href="#m8273025e9d" x="696.281259" y="339.84" style="stroke: #000000; stroke-width: 0.8"/>
      </g>
     </g>
     <g id="text_17">
      <!-- 0.40 -->
      <g transform="translate(685.148447 354.438437)scale(0.1 -0.1)">
       <use xlink:href="#DejaVuSans-30"/>
       <use xlink:href="#DejaVuSans-2e" x="63.623047"/>
       <use xlink:href="#DejaVuSans-34" x="95.410156"/>
       <use xlink:href="#DejaVuSans-30" x="159.033203"/>
      </g>
     </g>
    </g>
   </g>
   <g id="matplotlib.axis_4">
    <g id="ytick_5">
     <g id="line2d_34">
      <path d="M 55.778125 313.708388 
L 725.378125 313.708388 
" clip-path="url(#p2a5ee0c814)" style="fill: none; stroke: #b0b0b0; stroke-width: 0.8; stroke-linecap: square"/>
     </g>
     <g id="line2d_35">
      <g>
       <use xlink:href="#m3dfbe56829" x="55.778125" y="313.708388" style="stroke: #000000; stroke-width: 0.8"/>
      </g>
     </g>
     <g id="text_18">
      <!-- $\mathdefault{10^{-20}}$ -->
      <g transform="translate(20.878125 317.507607)scale(0.1 -0.1)">
       <use xlink:href="#DejaVuSans-31" transform="translate(0 0.765625)"/>
       <use xlink:href="#DejaVuSans-30" transform="translate(63.623047 0.765625)"/>
       <use xlink:href="#DejaVuSans-2212" transform="translate(128.203125 39.046875)scale(0.7)"/>
       <use xlink:href="#DejaVuSans-32" transform="translate(186.855469 39.046875)scale(0.7)"/>
       <use xlink:href="#DejaVuSans-30" transform="translate(231.391602 39.046875)scale(0.7)"/>
      </g>
     </g>
    </g>
    <g id="ytick_6">
     <g id="line2d_36">
      <path d="M 55.778125 282.470895 
L 725.378125 282.470895 
" clip-path="url(#p2a5ee0c814)" style="fill: none; stroke: #b0b0b0; stroke-width: 0.8; stroke-linecap: square"/>
     </g>
     <g id="line2d_37">
      <g>
       <use xlink:href="#m3dfbe56829" x="55.778125" y="282.470895" style="stroke: #000000; stroke-width: 0.8"/>
      </g>
     </g>
     <g id="text_19">
      <!-- $\mathdefault{10^{-18}}$ -->
      <g transform="translate(20.878125 286.270114)scale(0.1 -0.1)">
       <use xlink:href="#DejaVuSans-31" transform="translate(0 0.765625)"/>
       <use xlink:href="#DejaVuSans-30" transform="translate(63.623047 0.765625)"/>
       <use xlink:href="#DejaVuSans-2212" transform="translate(128.203125 39.046875)scale(0.7)"/>
       <use xlink:href="#DejaVuSans-31" transform="translate(186.855469 39.046875)scale(0.7)"/>
       <use xlink:href="#DejaVuSans-38" transform="translate(231.391602 39.046875)scale(0.7)"/>
      </g>
     </g>
    </g>
    <g id="ytick_7">
     <g id="line2d_38">
      <path d="M 55.778125 251.233401 
L 725.378125 251.233401 
" clip-path="url(#p2a5ee0c814)" style="fill: none; stroke: #b0b0b0; stroke-width: 0.8; stroke-linecap: square"/>
     </g>
     <g id="line2d_39">
      <g>
       <use xlink:href="#m3dfbe56829" x="55.778125" y="251.233401" style="stroke: #000000; stroke-width: 0.8"/>
      </g>
     </g>
     <g id="text_20">
      <!-- $\mathdefault{10^{-16}}$ -->
      <g transform="translate(20.878125 255.03262)scale(0.1 -0.1)">
       <use xlink:href="#DejaVuSans-31" transform="translate(0 0.765625)"/>
       <use xlink:href="#DejaVuSans-30" transform="translate(63.623047 0.765625)"/>
       <use xlink:href="#DejaVuSans-2212" transform="translate(128.203125 39.046875)scale(0.7)"/>
       <use xlink:href="#DejaVuSans-31" transform="translate(186.855469 39.046875)scale(0.7)"/>
       <use xlink:href="#DejaVuSans-36" transform="translate(231.391602 39.046875)scale(0.7)"/>
      </g>
     </g>
    </g>
    <g id="ytick_8">
     <g id="line2d_40">
      <path d="M 55.778125 219.995908 
L 725.378125 219.995908 
" clip-path="url(#p2a5ee0c814)" style="fill: none; stroke: #b0b0b0; stroke-width: 0.8; stroke-linecap: square"/>
     </g>
     <g id="line2d_41">
      <g>
       <use xlink:href="#m3dfbe56829" x="55.778125" y="219.995908" style="stroke: #000000; stroke-width: 0.8"/>
      </g>
     </g>
     <g id="text_21">
      <!-- $\mathdefault{10^{-14}}$ -->
      <g transform="translate(20.878125 223.795127)scale(0.1 -0.1)">
       <use xlink:href="#DejaVuSans-31" transform="translate(0 0.684375)"/>
       <use xlink:href="#DejaVuSans-30" transform="translate(63.623047 0.684375)"/>
       <use xlink:href="#DejaVuSans-2212" transform="translate(128.203125 38.965625)scale(0.7)"/>
       <use xlink:href="#DejaVuSans-31" transform="translate(186.855469 38.965625)scale(0.7)"/>
       <use xlink:href="#DejaVuSans-34" transform="translate(231.391602 38.965625)scale(0.7)"/>
      </g>
     </g>
    </g>
    <g id="ytick_9">
     <g id="line2d_42">
      <path d="M 55.778125 188.758415 
L 725.378125 188.758415 
" clip-path="url(#p2a5ee0c814)" style="fill: none; stroke: #b0b0b0; stroke-width: 0.8; stroke-linecap: square"/>
     </g>
     <g id="line2d_43">
      <g>
       <use xlink:href="#m3dfbe56829" x="55.778125" y="188.758415" style="stroke: #000000; stroke-width: 0.8"/>
      </g>
     </g>
     <g id="text_22">
      <!-- $\mathdefault{10^{-12}}$ -->
      <g transform="translate(20.878125 192.557633)scale(0.1 -0.1)">
       <use xlink:href="#DejaVuSans-31" transform="translate(0 0.765625)"/>
       <use xlink:href="#DejaVuSans-30" transform="translate(63.623047 0.765625)"/>
       <use xlink:href="#DejaVuSans-2212" transform="translate(128.203125 39.046875)scale(0.7)"/>
       <use xlink:href="#DejaVuSans-31" transform="translate(186.855469 39.046875)scale(0.7)"/>
       <use xlink:href="#DejaVuSans-32" transform="translate(231.391602 39.046875)scale(0.7)"/>
      </g>
     </g>
    </g>
    <g id="text_23">
     <!-- error(rate) -->
     <g transform="translate(14.798438 290.400156)rotate(-90)scale(0.1 -0.1)">
      <defs>
       <path id="DejaVuSans-65" d="M 3597 1894 
L 3597 1613 
L 953 1613 
Q 991 1019 1311 708 
Q 1631 397 2203 397 
Q 2534 397 2845 478 
Q 3156 559 3463 722 
L 3463 178 
Q 3153 47 2828 -22 
Q 2503 -91 2169 -91 
Q 1331 -91 842 396 
Q 353 884 353 1716 
Q 353 2575 817 3079 
Q 1281 3584 2069 3584 
Q 2775 3584 3186 3129 
Q 3597 2675 3597 1894 
z
M 3022 2063 
Q 3016 2534 2758 2815 
Q 2500 3097 2075 3097 
Q 1594 3097 1305 2825 
Q 1016 2553 972 2059 
L 3022 2063 
z
" transform="scale(0.015625)"/>
       <path id="DejaVuSans-72" d="M 2631 2963 
Q 2534 3019 2420 3045 
Q 2306 3072 2169 3072 
Q 1681 3072 1420 2755 
Q 1159 2438 1159 1844 
L 1159 0 
L 581 0 
L 581 3500 
L 1159 3500 
L 1159 2956 
Q 1341 3275 1631 3429 
Q 1922 3584 2338 3584 
Q 2397 3584 2469 3576 
Q 2541 3569 2628 3553 
L 2631 2963 
z
" transform="scale(0.015625)"/>
       <path id="DejaVuSans-6f" d="M 1959 3097 
Q 1497 3097 1228 2736 
Q 959 2375 959 1747 
Q 959 1119 1226 758 
Q 1494 397 1959 397 
Q 2419 397 2687 759 
Q 2956 1122 2956 1747 
Q 2956 2369 2687 2733 
Q 2419 3097 1959 3097 
z
M 1959 3584 
Q 2709 3584 3137 3096 
Q 3566 2609 3566 1747 
Q 3566 888 3137 398 
Q 2709 -91 1959 -91 
Q 1206 -91 779 398 
Q 353 888 353 1747 
Q 353 2609 779 3096 
Q 1206 3584 1959 3584 
z
" transform="scale(0.015625)"/>
       <path id="DejaVuSans-28" d="M 1984 4856 
Q 1566 4138 1362 3434 
Q 1159 2731 1159 2009 
Q 1159 1288 1364 580 
Q 1569 -128 1984 -844 
L 1484 -844 
Q 1016 -109 783 600 
Q 550 1309 550 2009 
Q 550 2706 781 3412 
Q 1013 4119 1484 4856 
L 1984 4856 
z
" transform="scale(0.015625)"/>
       <path id="DejaVuSans-29" d="M 513 4856 
L 1013 4856 
Q 1481 4119 1714 3412 
Q 1947 2706 1947 2009 
Q 1947 1309 1714 600 
Q 1481 -109 1013 -844 
L 513 -844 
Q 928 -128 1133 580 
Q 1338 1288 1338 2009 
Q 1338 2731 1133 3434 
Q 928 4138 513 4856 
z
" transform="scale(0.015625)"/>
      </defs>
      <use xlink:href="#DejaVuSans-65"/>
      <use xlink:href="#DejaVuSans-72" x="61.523438"/>
      <use xlink:href="#DejaVuSans-72" x="100.886719"/>
      <use xlink:href="#DejaVuSans-6f" x="139.75"/>
      <use xlink:href="#DejaVuSans-72" x="200.931641"/>
      <use xlink:href="#DejaVuSans-28" x="242.044922"/>
      <use xlink:href="#DejaVuSans-72" x="281.058594"/>
      <use xlink:href="#DejaVuSans-61" x="322.171875"/>
      <use xlink:href="#DejaVuSans-74" x="383.451172"/>
      <use xlink:href="#DejaVuSans-65" x="422.660156"/>
      <use xlink:href="#DejaVuSans-29" x="484.183594"/>
     </g>
    </g>
   </g>
   <g id="line2d_44">
    <path d="M 86.214489 249.052384 
L 86.958654 246.827827 
L 87.702819 254.649176 
L 88.446985 253.717736 
L 89.19115 250.799367 
L 89.935315 247.184895 
L 90.679481 255.315348 
L 91.423646 242.155517 
L 92.167812 249.824144 
L 92.911977 244.699505 
L 93.656142 248.280343 
L 94.400308 258.211003 
L 95.144473 255.162793 
L 95.888638 259.642082 
L 96.632804 250.955815 
L 97.376969 248.157747 
L 98.121135 256.478424 
L 98.8653 254.802817 
L 99.609465 254.373394 
L 100.353631 247.234565 
L 101.097796 247.451405 
L 101.841961 244.904136 
L 102.586127 246.252601 
L 103.330292 251.443856 
L 104.074458 251.019367 
L 104.818623 248.787412 
L 105.562788 253.06051 
L 106.306954 248.143173 
L 107.051119 247.943714 
L 107.795284 252.781809 
L 108.53945 252.507751 
L 109.283615 244.861742 
L 110.02778 246.831434 
L 110.771946 254.20072 
L 111.516111 252.650318 
L 112.260277 263.592167 
L 113.004442 251.379851 
L 113.748607 244.541159 
L 114.492773 249.020741 
L 115.236938 255.155113 
L 115.981103 248.954749 
L 116.725269 249.839731 
L 117.469434 255.314768 
L 118.2136 246.233955 
L 118.957765 255.244724 
L 119.70193 260.136937 
L 120.446096 257.887243 
L 121.190261 245.499954 
L 121.934426 244.237062 
L 122.678592 248.70175 
L 123.422757 254.498192 
L 124.166923 258.830358 
L 125.655253 245.788011 
L 126.399419 251.344508 
L 127.143584 250.570916 
L 127.887749 244.17817 
L 129.37608 267.376126 
L 130.120245 252.562438 
L 130.864411 245.335916 
L 131.608576 253.932031 
L 132.352742 249.288294 
L 133.096907 243.893669 
L 133.841072 249.658045 
L 134.585238 243.198665 
L 135.329403 246.733443 
L 136.073568 255.426362 
L 136.817734 257.567247 
L 137.561899 251.785118 
L 138.306065 247.342816 
L 139.05023 245.558893 
L 139.794395 261.630105 
L 140.538561 255.456943 
L 141.282726 247.808965 
L 142.026891 250.264806 
L 142.771057 249.107108 
L 143.515222 247.120453 
L 144.259388 247.781611 
L 145.003553 258.182154 
L 145.747718 276.506429 
L 146.491884 255.311043 
L 147.236049 247.10675 
L 147.980214 253.744259 
L 148.72438 244.408478 
L 149.468545 244.034701 
L 150.21271 250.514001 
L 150.956876 252.42545 
L 151.701041 246.812391 
L 152.445207 251.177985 
L 153.189372 252.861628 
L 153.933537 260.063895 
L 154.677703 250.505798 
L 155.421868 268.813162 
L 156.166033 251.909009 
L 156.910199 264.310773 
L 157.654364 247.422331 
L 158.39853 249.576815 
L 159.142695 247.021999 
L 159.88686 250.566575 
L 160.631026 244.351287 
L 161.375191 254.539773 
L 162.119356 257.274278 
L 162.863522 245.636433 
L 163.607687 248.630849 
L 164.351852 247.023608 
L 165.096018 250.312593 
L 165.840183 248.356038 
L 166.584349 246.773102 
L 167.328514 248.080322 
L 168.072679 254.654628 
L 168.816845 257.32928 
L 169.56101 253.155101 
L 170.305175 244.226204 
L 171.049341 248.662824 
L 171.793506 254.303452 
L 172.537672 256.284845 
L 173.281837 246.488384 
L 174.026002 251.165687 
L 174.770168 251.588165 
L 175.514333 253.571171 
L 176.258498 285.073946 
L 177.002664 255.717603 
L 177.746829 245.912601 
L 178.490995 255.895866 
L 179.23516 245.704718 
L 179.979325 247.58149 
L 180.723491 250.443 
L 181.467656 256.533563 
L 182.211821 244.859865 
L 182.955987 246.754024 
L 183.700152 246.739688 
L 184.444317 246.580285 
L 185.188483 258.400347 
L 185.932648 251.394296 
L 186.676814 246.381406 
L 187.420979 250.000383 
L 188.165144 252.028486 
L 188.90931 266.170653 
L 189.653475 247.634824 
L 190.39764 243.963019 
L 191.141806 247.844989 
L 191.885971 249.360603 
L 192.630137 246.149905 
L 193.374302 268.583059 
L 194.118467 246.992837 
L 194.862633 246.447424 
L 195.606798 252.307608 
L 196.350963 246.38124 
L 197.095129 253.308169 
L 197.839294 248.108845 
L 198.58346 246.329446 
L 199.327625 250.982432 
L 200.07179 250.516977 
L 200.815956 249.397082 
L 201.560121 251.467363 
L 202.304286 246.475852 
L 203.048452 247.855168 
L 203.792617 251.114915 
L 204.536782 244.333919 
L 205.280948 246.844032 
L 206.025113 241.136181 
L 206.769279 247.006628 
L 207.513444 249.042463 
L 208.257609 246.698317 
L 209.001775 248.358971 
L 209.74594 244.55339 
L 210.490105 247.659298 
L 211.234271 244.988215 
L 211.978436 245.15116 
L 212.722602 250.108511 
L 213.466767 248.906062 
L 214.210932 244.074284 
L 214.955098 249.607113 
L 215.699263 245.246166 
L 216.443428 244.541317 
L 217.187594 243.474747 
L 217.931759 242.799201 
L 218.675925 244.758781 
L 219.42009 250.75237 
L 220.164255 242.817661 
L 220.908421 247.273596 
L 221.652586 246.423219 
L 222.396751 241.704116 
L 223.140917 245.485097 
L 223.885082 246.489504 
L 224.629247 253.983928 
L 225.373413 251.058921 
L 226.117578 243.961306 
L 227.605909 248.182334 
L 228.350074 243.361633 
L 229.09424 248.549104 
L 229.838405 242.467263 
L 230.58257 247.451849 
L 231.326736 246.799844 
L 232.070901 247.357369 
L 232.815067 267.705532 
L 233.559232 242.037044 
L 234.303397 247.102972 
L 235.047563 243.793879 
L 235.791728 246.484711 
L 236.535893 243.231918 
L 237.280059 243.422541 
L 238.024224 247.033159 
L 238.76839 246.704048 
L 239.512555 247.230712 
L 240.25672 242.667219 
L 241.000886 245.004917 
L 241.745051 251.697936 
L 242.489216 243.770348 
L 243.233382 245.456677 
L 243.977547 243.261619 
L 244.721712 245.023446 
L 245.465878 249.232904 
L 246.210043 245.617115 
L 246.954209 246.078346 
L 247.698374 246.22236 
L 248.442539 240.892165 
L 249.186705 245.355233 
L 249.93087 245.989384 
L 250.675035 245.900801 
L 251.419201 245.194331 
L 252.163366 249.316429 
L 252.907532 245.790398 
L 253.651697 245.475011 
L 254.395862 240.325924 
L 255.140028 244.713341 
L 255.884193 243.998269 
L 256.628358 242.117466 
L 257.372524 246.305839 
L 258.116689 242.604361 
L 258.860854 245.75671 
L 259.60502 244.971334 
L 260.349185 246.824693 
L 261.093351 242.339883 
L 261.837516 249.272705 
L 262.581681 243.081917 
L 263.325847 253.967276 
L 264.070012 242.598674 
L 264.814177 245.870459 
L 265.558343 250.844465 
L 266.302508 242.342962 
L 267.046674 247.996727 
L 267.790839 247.744753 
L 268.535004 246.797236 
L 269.27917 240.898238 
L 270.023335 246.65222 
L 270.7675 241.211003 
L 271.511666 244.178636 
L 272.255831 243.045053 
L 272.999997 245.995077 
L 273.744162 250.082414 
L 274.488327 245.987401 
L 275.232493 243.792304 
L 275.976658 244.934302 
L 276.720823 249.924232 
L 277.464989 242.090114 
L 278.209154 240.429041 
L 278.953319 245.980477 
L 279.697485 247.680659 
L 280.44165 243.576695 
L 281.185816 245.834694 
L 281.929981 247.721906 
L 282.674146 248.565763 
L 283.418312 243.956957 
L 284.162477 242.65694 
L 284.906642 265.970282 
L 285.650808 244.091572 
L 286.394973 251.924785 
L 287.139139 249.223927 
L 287.883304 242.213518 
L 288.627469 241.95206 
L 289.371635 245.734879 
L 290.1158 245.667831 
L 290.859965 243.671378 
L 291.604131 246.58173 
L 292.348296 240.618419 
L 293.092462 244.897736 
L 293.836627 244.033682 
L 294.580792 242.812202 
L 295.324958 247.059222 
L 296.813288 245.073733 
L 297.557454 249.435365 
L 298.301619 243.714284 
L 299.045784 244.338458 
L 299.78995 244.745574 
L 300.534115 244.979327 
L 301.278281 243.093796 
L 302.022446 242.623801 
L 302.766611 245.059287 
L 303.510777 246.89669 
L 304.254942 256.354973 
L 304.999107 253.679715 
L 305.743273 249.747855 
L 306.487438 249.189367 
L 307.231604 249.504497 
L 307.975769 245.408874 
L 308.719934 245.91992 
L 309.4641 257.945822 
L 310.208265 241.418918 
L 310.95243 245.534192 
L 311.696596 245.725033 
L 312.440761 257.328186 
L 313.184927 246.975131 
L 313.929092 244.475671 
L 314.673257 245.732725 
L 315.417423 245.263214 
L 316.161588 243.948766 
L 316.905753 255.733283 
L 317.649919 262.797083 
L 318.394084 245.360128 
L 319.138249 253.464546 
L 319.882415 239.438008 
L 320.62658 264.111857 
L 321.370746 244.115712 
L 322.114911 247.287198 
L 322.859076 248.781004 
L 323.603242 241.670021 
L 324.347407 238.895955 
L 325.835738 249.981868 
L 326.579903 248.374007 
L 327.324069 243.929695 
L 328.068234 264.558039 
L 328.812399 244.545419 
L 329.556565 245.567578 
L 330.30073 251.585159 
L 331.044895 239.529288 
L 331.789061 240.109997 
L 332.533226 248.398745 
L 333.277392 247.664823 
L 334.021557 240.460026 
L 334.765722 270.159178 
L 336.254053 249.963687 
L 336.998218 241.486913 
L 337.742384 251.440941 
L 338.486549 244.000365 
L 339.230714 246.813194 
L 339.97488 247.902711 
L 340.719045 244.792303 
L 341.463211 250.462528 
L 342.207376 244.981837 
L 342.951541 250.753997 
L 343.695707 244.248579 
L 344.439872 255.428357 
L 345.184037 273.5235 
L 345.928203 243.811831 
L 346.672368 244.825182 
L 347.416534 261.388914 
L 348.160699 238.642965 
L 348.904864 267.28138 
L 349.64903 251.137083 
L 350.393195 241.224125 
L 351.13736 241.538365 
L 351.881526 248.529963 
L 352.625691 267.096557 
L 353.369856 253.654197 
L 354.114022 243.302472 
L 354.858187 241.970116 
L 355.602353 270.019363 
L 356.346518 241.029429 
L 357.090683 250.435914 
L 357.834849 248.954754 
L 358.579014 244.027381 
L 359.323179 242.159291 
L 360.067345 239.80639 
L 360.81151 247.755065 
L 361.555676 237.779843 
L 362.299841 242.923561 
L 363.044006 241.685709 
L 363.788172 246.906174 
L 364.532337 243.382923 
L 365.276502 248.703454 
L 366.020668 239.863865 
L 366.764833 247.045947 
L 367.508999 245.722137 
L 368.253164 236.580766 
L 368.997329 252.92592 
L 369.741495 238.954325 
L 370.48566 261.637653 
L 371.229825 238.562523 
L 371.973991 244.098143 
L 372.718156 251.149382 
L 373.462321 247.979412 
L 374.206487 238.612585 
L 374.950652 244.991497 
L 375.694818 248.309639 
L 376.438983 259.532878 
L 377.183148 252.740547 
L 377.927314 238.479191 
L 378.671479 238.454318 
L 379.415644 267.372854 
L 380.15981 236.441125 
L 380.903975 240.820956 
L 381.648141 241.221017 
L 382.392306 240.05799 
L 383.136471 258.658718 
L 383.880637 258.551606 
L 384.624802 236.72146 
L 385.368967 239.787808 
L 386.113133 237.147072 
L 386.857298 253.390313 
L 387.601464 235.053259 
L 388.345629 239.534848 
L 389.089794 240.972919 
L 389.83396 247.599699 
L 390.578125 239.181118 
L 391.32229 242.92512 
L 392.066456 236.631666 
L 392.810621 245.494274 
L 393.554786 236.549254 
L 394.298952 235.999126 
L 395.043117 239.86013 
L 395.787283 237.388366 
L 396.531448 238.780295 
L 397.275613 237.4568 
L 398.019779 244.204252 
L 398.763944 235.229624 
L 399.508109 249.905246 
L 400.252275 236.163952 
L 400.99644 236.572811 
L 401.740606 234.287001 
L 402.484771 240.081066 
L 403.228936 242.219956 
L 403.973102 240.039005 
L 404.717267 234.588615 
L 405.461432 234.817364 
L 406.205598 235.732637 
L 406.949763 234.325646 
L 407.693929 237.28117 
L 408.438094 235.515397 
L 409.182259 245.116772 
L 409.926425 236.905223 
L 410.67059 237.55784 
L 411.414755 236.57517 
L 412.158921 240.835655 
L 412.903086 239.813999 
L 413.647251 238.389227 
L 414.391417 233.437912 
L 415.135582 238.999916 
L 415.879748 236.004065 
L 416.623913 234.100021 
L 417.368078 239.932798 
L 418.112244 242.188796 
L 418.856409 234.760726 
L 419.600574 233.545692 
L 420.34474 237.229241 
L 421.088905 240.268242 
L 421.833071 239.327805 
L 422.577236 232.585442 
L 423.321401 241.918889 
L 424.065567 235.604726 
L 424.809732 260.930478 
L 425.553897 238.236941 
L 426.298063 237.262836 
L 427.042228 235.197993 
L 427.786394 238.00631 
L 428.530559 239.774985 
L 429.274724 238.567997 
L 430.01889 239.461112 
L 430.763055 231.2936 
L 431.50722 232.730488 
L 432.251386 240.652793 
L 432.995551 237.798891 
L 433.739716 236.868169 
L 434.483882 234.180573 
L 435.228047 244.972181 
L 435.972213 232.448211 
L 436.716378 235.360663 
L 437.460543 234.501305 
L 438.204709 237.345655 
L 438.948874 242.060725 
L 439.693039 232.247674 
L 440.437205 231.837961 
L 441.18137 241.282944 
L 441.925536 233.420513 
L 442.669701 245.014012 
L 443.413866 239.762122 
L 444.158032 231.939265 
L 444.902197 233.593249 
L 445.646362 229.312638 
L 446.390528 234.072216 
L 447.134693 237.507161 
L 447.878858 238.355958 
L 448.623024 236.858081 
L 449.367189 238.189646 
L 450.111355 233.83135 
L 450.85552 236.123728 
L 451.599685 233.998873 
L 452.343851 233.976234 
L 453.088016 234.142658 
L 453.832181 231.294424 
L 454.576347 227.215017 
L 455.320512 231.063048 
L 456.064678 234.019577 
L 456.808843 229.721139 
L 457.553008 232.366703 
L 459.041339 242.372826 
L 459.785504 240.310685 
L 460.52967 231.466463 
L 461.273835 235.053885 
L 462.018001 239.837825 
L 462.762166 226.56818 
L 463.506331 234.483778 
L 464.250497 230.22995 
L 464.994662 241.989438 
L 465.738827 227.299909 
L 466.482993 234.913965 
L 467.227158 233.714382 
L 467.971323 232.863597 
L 468.715489 248.637963 
L 469.459654 238.260452 
L 470.20382 233.282675 
L 470.947985 226.368512 
L 471.69215 223.544551 
L 472.436316 243.725004 
L 473.180481 230.089123 
L 473.924646 241.019664 
L 474.668812 221.631293 
L 475.412977 222.06655 
L 476.157143 230.646939 
L 476.901308 237.498069 
L 477.645473 221.715349 
L 478.389639 222.100795 
L 479.133804 229.300578 
L 479.877969 219.270863 
L 480.622135 215.32992 
L 481.3663 234.474449 
L 482.110466 221.962056 
L 482.854631 221.407118 
L 483.598796 209.525674 
L 484.342962 195.512727 
L 485.087127 206.231936 
L 485.831292 211.440506 
L 486.575458 220.090108 
L 487.319623 225.116168 
L 488.063788 218.241271 
L 488.807954 218.383631 
L 489.552119 220.298646 
L 490.296285 239.654446 
L 491.04045 221.828357 
L 491.784615 235.749752 
L 492.528781 223.076412 
L 493.272946 220.480158 
L 494.017111 252.570772 
L 494.761277 245.626948 
L 495.505442 241.84168 
L 496.249608 231.865569 
L 496.993773 227.672473 
L 497.737938 233.159423 
L 498.482104 231.146307 
L 499.226269 247.036261 
L 499.970434 229.083485 
L 500.7146 237.734545 
L 501.458765 232.583559 
L 502.202931 232.98508 
L 502.947096 231.482475 
L 503.691261 229.402399 
L 504.435427 239.305794 
L 505.179592 226.913335 
L 505.923757 245.094962 
L 506.667923 230.373357 
L 507.412088 229.763904 
L 508.156253 230.385795 
L 508.900419 231.338704 
L 509.644584 226.816081 
L 510.38875 230.745945 
L 511.132915 239.448361 
L 511.87708 228.515301 
L 512.621246 229.811211 
L 513.365411 233.209329 
L 514.109576 230.911985 
L 514.853742 241.885607 
L 515.597907 229.852701 
L 516.342073 241.485127 
L 517.086238 231.609273 
L 517.830403 235.651977 
L 519.318734 239.152754 
L 520.062899 229.921366 
L 520.807065 228.453918 
L 521.55123 235.537419 
L 522.295396 232.970562 
L 523.039561 239.090353 
L 523.783726 231.586645 
L 524.527892 230.250386 
L 525.272057 239.659746 
L 526.016222 234.031429 
L 526.760388 236.412963 
L 527.504553 246.747616 
L 528.992884 231.849492 
L 529.737049 231.016811 
L 530.481215 235.638893 
L 531.22538 248.608491 
L 531.969545 233.17357 
L 532.713711 246.364142 
L 533.457876 234.458457 
L 534.202041 237.266265 
L 534.946207 238.569648 
L 535.690372 233.426553 
L 536.434538 246.510235 
L 537.178703 233.231945 
L 537.922868 241.771617 
L 538.667034 239.157847 
L 539.411199 242.770214 
L 540.155364 238.247901 
L 540.89953 251.457942 
L 541.643695 246.47648 
L 542.38786 239.100114 
L 543.132026 244.147779 
L 543.876191 246.936663 
L 544.620357 238.277717 
L 546.108687 240.871037 
L 546.852853 249.399531 
L 547.597018 248.215489 
L 548.341183 251.324571 
L 549.085349 249.290601 
L 549.829514 247.970301 
L 550.57368 247.474526 
L 551.317845 256.450611 
L 552.06201 259.8329 
L 552.806176 254.924462 
L 553.550341 241.36959 
L 554.294506 246.07264 
L 555.038672 242.671946 
L 555.782837 242.704661 
L 556.527003 244.20089 
L 557.271168 241.889005 
L 558.015333 247.886346 
L 558.759499 243.253757 
L 559.503664 249.167876 
L 560.247829 248.59008 
L 560.991995 242.486804 
L 561.73616 242.658314 
L 562.480325 242.57605 
L 563.224491 245.852186 
L 563.968656 246.790153 
L 564.712822 243.494442 
L 565.456987 242.278658 
L 566.201152 241.461568 
L 566.945318 241.316491 
L 567.689483 241.911916 
L 568.433648 244.251732 
L 569.177814 245.263114 
L 569.921979 247.009472 
L 570.666145 244.945101 
L 571.41031 249.818133 
L 572.154475 249.350814 
L 572.898641 252.864555 
L 573.642806 246.692684 
L 574.386971 250.405255 
L 575.131137 247.280862 
L 576.619468 259.193885 
L 577.363633 248.031623 
L 578.107798 256.556423 
L 578.851964 249.837169 
L 579.596129 254.46336 
L 580.340294 253.028261 
L 581.08446 257.500346 
L 581.828625 259.562835 
L 582.57279 276.105034 
L 583.316956 249.789871 
L 584.061121 261.989285 
L 584.805287 255.053258 
L 585.549452 262.798117 
L 586.293617 249.293344 
L 587.037783 246.196028 
L 587.781948 255.294657 
L 588.526113 258.945558 
L 589.270279 260.736693 
L 590.014444 247.338089 
L 590.75861 250.796076 
L 591.502775 258.411004 
L 592.24694 251.718818 
L 592.991106 261.28638 
L 593.735271 249.773005 
L 594.479436 266.398669 
L 595.223602 251.911541 
L 595.967767 250.404615 
L 596.711933 256.12382 
L 597.456098 246.515392 
L 598.200263 258.103164 
L 599.688594 248.087994 
L 600.432759 250.077774 
L 601.176925 264.094847 
L 601.92109 245.916784 
L 602.665255 251.219812 
L 603.409421 253.640544 
L 604.153586 246.66605 
L 604.897752 243.327171 
L 605.641917 274.02132 
L 606.386082 258.041344 
L 607.130248 252.2854 
L 607.874413 286.97987 
L 608.618578 249.741582 
L 609.362744 260.573862 
L 610.106909 250.642856 
L 610.851075 249.966314 
L 611.59524 243.474468 
L 613.083571 258.935284 
L 613.827736 251.422703 
L 614.571901 252.074823 
L 615.316067 246.164986 
L 616.060232 257.300904 
L 616.804398 271.291077 
L 617.548563 257.374943 
L 618.292728 254.987076 
L 619.036894 266.022014 
L 619.781059 252.37674 
L 620.525224 257.01797 
L 621.26939 255.324639 
L 622.013555 261.080134 
L 622.75772 252.828138 
L 623.501886 261.148364 
L 624.990217 248.307808 
L 625.734382 256.524452 
L 626.478547 252.400257 
L 627.222713 247.394501 
L 627.966878 261.92035 
L 628.711043 257.029994 
L 629.455209 257.340834 
L 630.199374 248.152224 
L 630.94354 249.6496 
L 631.687705 251.837529 
L 632.43187 256.330051 
L 633.176036 258.014837 
L 633.920201 267.067503 
L 634.664366 252.551271 
L 635.408532 257.587455 
L 636.152697 247.333082 
L 636.896862 259.736044 
L 637.641028 250.921068 
L 638.385193 252.266304 
L 639.129359 247.386087 
L 639.873524 257.644257 
L 640.617689 269.739575 
L 642.10602 245.814753 
L 642.850185 244.730691 
L 643.594351 254.479501 
L 644.338516 256.818997 
L 645.082682 250.775522 
L 645.826847 298.693169 
L 646.571012 251.153928 
L 647.315178 251.58482 
L 648.059343 245.111748 
L 648.803508 247.220696 
L 649.547674 245.841492 
L 650.291839 246.645711 
L 651.036005 257.350516 
L 651.78017 245.018655 
L 652.524335 244.855477 
L 653.268501 254.243861 
L 654.012666 253.100958 
L 654.756831 244.618204 
L 655.500997 250.790349 
L 656.245162 253.575184 
L 656.989327 262.490954 
L 657.733493 263.419825 
L 658.477658 248.665462 
L 659.221824 252.991354 
L 659.965989 265.649106 
L 660.710154 249.768819 
L 661.45432 249.115737 
L 662.198485 249.260767 
L 662.94265 249.244971 
L 663.686816 257.622041 
L 664.430981 247.000666 
L 665.175147 252.124949 
L 665.919312 253.833035 
L 666.663477 267.886694 
L 667.407643 249.239458 
L 668.151808 245.075298 
L 668.895973 248.00743 
L 669.640139 250.432084 
L 670.384304 249.511978 
L 671.12847 261.799292 
L 672.6168 247.217093 
L 673.360966 245.826814 
L 674.105131 252.513769 
L 674.849296 262.32749 
L 675.593462 247.617663 
L 676.337627 272.200704 
L 677.081792 245.684232 
L 677.825958 247.078303 
L 679.314289 260.395404 
L 680.058454 257.278427 
L 680.802619 246.837138 
L 681.546785 253.073566 
L 682.29095 256.437795 
L 683.035115 246.046806 
L 683.779281 254.111539 
L 684.523446 283.388682 
L 685.267612 249.83841 
L 686.011777 332.967273 
L 686.755942 258.738531 
L 687.500108 265.177907 
L 688.988438 245.876841 
L 689.732604 265.646959 
L 690.476769 262.775921 
L 691.220935 248.549333 
L 691.9651 256.548128 
L 692.709265 247.827262 
L 693.453431 250.01044 
L 694.197596 247.498726 
L 694.941761 254.251652 
L 694.941761 254.251652 
" clip-path="url(#p2a5ee0c814)" style="fill: none; stroke: #1f77b4; stroke-width: 1.5; stroke-linecap: square"/>
   </g>
   <g id="patch_8">
    <path d="M 55.778125 339.84 
L 55.778125 188.64 
" style="fill: none; stroke: #000000; stroke-width: 0.8; stroke-linejoin: miter; stroke-linecap: square"/>
   </g>
   <g id="patch_9">
    <path d="M 725.378125 339.84 
L 725.378125 188.64 
" style="fill: none; stroke: #000000; stroke-width: 0.8; stroke-linejoin: miter; stroke-linecap: square"/>
   </g>
   <g id="patch_10">
    <path d="M 55.778125 339.84 
L 725.378125 339.84 
" style="fill: none; stroke: #000000; stroke-width: 0.8; stroke-linejoin: miter; stroke-linecap: square"/>
   </g>
   <g id="patch_11">
    <path d="M 55.778125 188.64 
L 725.378125 188.64 
" style="fill: none; stroke: #000000; stroke-width: 0.8; stroke-linejoin: miter; stroke-linecap: square"/>
   </g>
  </g>
 </g>
 <defs>
  <clipPath id="p18c939d5a8">
   <rect x="55.778125" y="7.2" width="669.6" height="151.2"/>
  </clipPath>
  <clipPath id="p2a5ee0c814">
   <rect x="55.778125" y="188.64" width="669.6" height="151.2"/>
  </clipPath>
 </defs>
</svg>
